<?xml version="1.0" encoding="UTF-8"?>
<svg width="30px" height="30px" viewBox="0 0 30 30" version="1.1" xmlns="http://www.w3.org/2000/svg" xmlns:xlink="http://www.w3.org/1999/xlink">
    <!-- Generator: Sketch 52.5 (67469) - http://www.bohemiancoding.com/sketch -->
    <title>history</title>
    <desc>Created with Sketch.</desc>
    <g id="history" stroke="none" stroke-width="1" fill="none" fill-rule="evenodd">
        <g id="ic-history-24px" transform="translate(0.000000, 2.000000)" fill="#929292" fill-rule="nonzero">
            <path d="M17.1428571,0 C10.0428571,0 4.28571429,5.82111111 4.28571429,13 L0,13 L5.55714286,18.6188889 L5.65714286,18.8211111 L11.4285714,13 L7.14285714,13 C7.14285714,7.41 11.6142857,2.88888889 17.1428571,2.88888889 C22.6714286,2.88888889 27.1428571,7.41 27.1428571,13 C27.1428571,18.59 22.6714286,23.1111111 17.1428571,23.1111111 C14.3857143,23.1111111 11.8857143,21.97 10.0857143,20.1355556 L8.05714286,22.1866667 C10.3857143,24.5411111 13.5857143,26 17.1428571,26 C24.2428571,26 30,20.1788889 30,13 C30,5.82111111 24.2428571,0 17.1428571,0 Z M15.7142857,7.22222222 L15.7142857,14.4444444 L21.8285714,18.1133333 L22.8571429,16.3655556 L17.8571429,13.3611111 L17.8571429,7.22222222 L15.7142857,7.22222222 Z" id="Shape"></path>
        </g>
    </g>
</svg>