<?xml version="1.0" encoding="UTF-8"?>
<svg width="30px" height="30px" viewBox="0 0 30 30" version="1.1" xmlns="http://www.w3.org/2000/svg" xmlns:xlink="http://www.w3.org/1999/xlink">
    <!-- Generator: Sketch 52.5 (67469) - http://www.bohemiancoding.com/sketch -->
    <title>settings</title>
    <desc>Created with Sketch.</desc>
    <g id="settings" stroke="none" stroke-width="1" fill="none" fill-rule="evenodd">
        <path d="M30,16.18356 L30,13.81632 C29.9999994,13.2809044 29.6452956,12.810267 29.1306,12.66276 L26.664,11.95608 C26.4721513,11.8999125 26.3221275,11.7498887 26.26596,11.55804 C26.0462574,10.8333528 25.7569076,10.1316392 25.40196,9.46272 C25.3069727,9.28789588 25.3075606,9.07673246 25.40352,8.90244 L26.64204,6.672 C26.9018841,6.20371348 26.8199693,5.61992941 26.44128,5.24124 L24.759,3.5586 C24.3802708,3.17979447 23.7963448,3.09787344 23.328,3.35784 L21.09672,4.596 C20.9222004,4.69207335 20.7107283,4.69248055 20.53584,4.59708 C19.8672261,4.24201559 19.1657398,3.95266002 18.44124,3.73308 C18.249616,3.67667481 18.0998583,3.52664575 18.0438,3.33492 L17.33724,0.8694 C17.189733,0.35470442 16.7190956,5.7367922e-07 16.18368,0 L13.81632,0 C13.2809044,5.7367922e-07 12.810267,0.35470442 12.66276,0.8694 L11.95608,3.33516 C11.8998636,3.52703025 11.7498763,3.67710793 11.55804,3.73344 C10.8336849,3.95299359 10.1323553,4.24235081 9.46392,4.59744 C9.28898847,4.69271346 9.07756226,4.69226111 8.90304,4.59624 L6.672,3.35784 C6.20371348,3.09799587 5.61992941,3.17991072 5.24124,3.5586 L3.55872,5.241 C3.17991447,5.61972919 3.09799344,6.20365524 3.35796,6.672 L4.596,8.9034 C4.69207871,9.07801439 4.69244066,9.28957788 4.59696,9.46452 C4.24175176,10.1328576 3.95238951,10.8341591 3.73296,11.55852 C3.67659749,11.7502877 3.52651557,11.9001888 3.33468,11.95632 L0.86916,12.66288 C0.354602314,12.8104633 2.34094216e-05,13.2810159 0,13.81632 L0,16.18356 C5.7367922e-07,16.7189756 0.35470442,17.189613 0.8694,17.33712 L3.33552,18.0438 C3.52743213,18.099975 3.67750498,18.2500479 3.73368,18.44196 C3.95335671,19.1665794 4.24270788,19.8682158 4.59768,20.53704 C4.69260764,20.7118902 4.6919745,20.9230422 4.596,21.09732 L3.35796,23.328 C3.09817708,23.7962574 3.18008884,24.3799705 3.55872,24.75864 L5.24088,26.44092 C5.61956941,26.8196093 6.20335348,26.9015241 6.67164,26.64168 L8.90304,25.404 C9.07756226,25.3079789 9.28898847,25.3075265 9.46392,25.4028 C10.1323099,25.7578971 10.8336004,26.0472548 11.55792,26.2668 C11.7497272,26.3231093 11.8997085,26.4731358 11.95596,26.66496 L12.66276,29.13096 C12.8103999,29.6455129 13.281005,30.0000455 13.81632,30 L16.18356,30 C16.7189756,29.9999994 17.189613,29.6452956 17.33712,29.1306 L18.04368,26.66508 C18.0998264,26.4732787 18.2497296,26.3232399 18.44148,26.26692 C19.1660163,26.0473345 19.8675419,25.7579793 20.5362,25.40292 C20.7111202,25.3076017 20.9225693,25.3080541 21.09708,25.40412 L23.328,26.64204 C23.7962865,26.9018841 24.3800706,26.8199693 24.75876,26.44128 L26.44104,24.759 C26.8196712,24.3803305 26.9015829,23.7966174 26.6418,23.32836 L25.404,21.09696 C25.3079779,20.9224807 25.3075255,20.7110887 25.4028,20.5362 C25.7578258,19.8675262 26.0471796,19.1660039 26.2668,18.44148 C26.3231397,18.2497414 26.4731705,18.0998463 26.66496,18.04368 L29.13048,17.33712 C29.6452231,17.1896573 29.9999841,16.7190091 30,16.18356 Z M15,20.4 C12.0176624,20.4 9.6,17.9823376 9.6,15 C9.6,12.0176624 12.0176624,9.6 15,9.6 C17.9823376,9.6 20.4,12.0176624 20.4,15 C20.4,16.432169 19.8310731,17.8056802 18.8183766,18.8183766 C17.8056802,19.8310731 16.432169,20.4 15,20.4 Z" id="Shape" fill="#929292" fill-rule="nonzero"></path>
    </g>
</svg>