<?xml version="1.0" encoding="UTF-8"?>
<svg width="30px" height="30px" viewBox="0 0 30 30" version="1.1" xmlns="http://www.w3.org/2000/svg" xmlns:xlink="http://www.w3.org/1999/xlink">
    <!-- Generator: Sketch 52.5 (67469) - http://www.bohemiancoding.com/sketch -->
    <title>sleeping_tabs</title>
    <desc>Created with Sketch.</desc>
    <g id="sleeping_tabs" stroke="none" stroke-width="1" fill="none" fill-rule="evenodd">
        <path d="M5.58506224,4.95265222 C7.12949368,2.61941326 10.0796652,1.29023326 12.8672199,0.301001914 C13.2890288,0.394972945 13.8478841,0.116049065 14.0995851,0.0624557449 C15.4289804,-0.0116070311 16.4417967,-0.209579498 16.7883817,0.897367338 C16.7251793,1.51009277 16.8371901,1.50908091 16.6763485,1.85155202 C15.8012479,3.71485601 14.3191458,3.54056266 13.3153527,7.81520625 L13.3153527,8.53084476 L13.2033195,8.53084476 L13.2033195,11.3933988 L13.3153527,11.3933988 C13.6226715,16.0670438 17.2176502,19.619225 21.1576763,20.4581532 L21.8298755,20.4581532 L21.8298755,20.5774263 L24.5186722,20.5774263 L24.5186722,20.4581532 C25.7868213,20.4877053 26.6267456,19.8293254 27.5435685,19.5039685 C28.3093327,19.4753762 28.759445,19.8266795 29,20.3388801 C28.8071715,24.9943619 22.219076,29.0345088 18.2448133,29.8807269 L17.2365145,29.8807269 L17.2365145,30 L15.219917,30 L15.219917,29.8807269 L14.0995851,29.8807269 L14.0995851,29.7614538 C7.90275605,29.2672255 3.34524143,23.8022875 2.22406639,17.8341454 L2.22406639,17.1185069 L2.1120332,17.1185069 L2.1120332,15.925776 L2,15.925776 L2,14.0174067 L2.1120332,14.0174067 L2.1120332,12.8246758 L2.22406639,12.8246758 C2.37895525,10.1702411 3.46147749,8.4008276 4.3526971,6.50320232 C4.61293989,5.94908153 5.32152715,5.5137831 5.58506224,4.95265222 L5.58506224,4.95265222 Z" id="Shape-20" fill="#929292" fill-rule="nonzero"></path>
    </g>
</svg>