<?xml version="1.0" encoding="UTF-8"?>
<svg width="23px" height="23px" viewBox="0 0 23 23" version="1.1" xmlns="http://www.w3.org/2000/svg" xmlns:xlink="http://www.w3.org/1999/xlink">
    <!-- Generator: Sketch 52.5 (67469) - http://www.bohemiancoding.com/sketch -->
    <title>facebook</title>
    <desc>Created with Sketch.</desc>
    <g id="facebook" stroke="none" stroke-width="1" fill="none" fill-rule="evenodd">
        <g id="iconmonstr-facebook-6" fill="#FFFFFF">
            <path d="M21.7302083,-2.77555756e-17 L1.26979167,-2.77555756e-17 C0.568291667,-2.77555756e-17 -6.66133815e-16,0.568291667 -6.66133815e-16,1.26979167 L-6.66133815e-16,21.7311667 C-6.66133815e-16,22.4317083 0.568291667,23 1.26979167,23 L12.2858333,23 L12.2858333,14.09325 L9.28816667,14.09325 L9.28816667,10.6221667 L12.2858333,10.6221667 L12.2858333,8.06245833 C12.2858333,5.091625 14.0999583,3.47395833 16.7507083,3.47395833 C18.0205,3.47395833 19.1110833,3.56883333 19.42925,3.611 L19.42925,6.716 L17.5911667,6.71695833 C16.1498333,6.71695833 15.8709583,7.40216667 15.8709583,8.4065 L15.8709583,10.623125 L19.3085,10.623125 L18.8609583,14.0942083 L15.8709583,14.0942083 L15.8709583,23 L21.732125,23 C22.4317083,23 23,22.4317083 23,21.7302083 L23,1.26979167 C23,0.568291667 22.4317083,-6.66133815e-16 21.7302083,-2.77555756e-17 Z" id="Path"></path>
        </g>
    </g>
</svg>