<?xml version="1.0" encoding="UTF-8"?>
<svg width="159px" height="39px" viewBox="0 0 159 39" version="1.1" xmlns="http://www.w3.org/2000/svg" xmlns:xlink="http://www.w3.org/1999/xlink">
    <!-- Generator: Sketch 52.5 (67469) - http://www.bohemiancoding.com/sketch -->
    <title>logo</title>
    <desc>Created with Sketch.</desc>
    <g id="logo" stroke="none" stroke-width="1" fill="none" fill-rule="evenodd">
        <path d="M58.1013504,12.5578343 L53.0716595,12.5578343 L53.0716595,26.5077036 L51.0189437,26.5077036 L51.0189437,12.5578343 L46,12.5578343 L46,10.8597762 L58.1013504,10.8597762 L58.1013504,12.5578343 Z M66.0757749,26.5077036 C65.9611375,26.2784288 65.867996,25.8700392 65.7963477,25.2825225 C64.8720836,26.2426107 63.7687151,26.7226477 62.4862092,26.7226477 C61.3398352,26.7226477 60.3994643,26.3984436 59.6650684,25.7500258 C58.9306726,25.101608 58.5634801,24.2794552 58.5634801,23.2835427 C58.5634801,22.0726852 59.0238141,21.1323143 59.9444957,20.462402 C60.8651774,19.7924897 62.1602024,19.4575385 63.8296095,19.4575385 L65.7641061,19.4575385 L65.7641061,18.5440263 C65.7641061,17.849037 65.5563289,17.2955616 65.1407683,16.8835834 C64.7252077,16.4716053 64.1126233,16.2656193 63.3029966,16.2656193 C62.5936777,16.2656193 61.9990051,16.4447375 61.5189609,16.8029794 C61.0389168,17.1612213 60.7988983,17.5946875 60.7988983,18.103391 L58.7999186,18.103391 C58.7999186,17.5230391 59.0059046,16.962399 59.4178828,16.4214537 C59.8298609,15.8805085 60.3887099,15.4524158 61.0944464,15.137163 C61.8001829,14.8219101 62.575765,14.664286 63.4212158,14.664286 C64.7610405,14.664286 65.8106735,14.9992372 66.5701463,15.6691495 C67.3296191,16.3390618 67.7236792,17.2615209 67.7523386,18.4365542 L67.7523386,23.7886613 C67.7523386,24.8562221 67.8884685,25.7052426 68.1607323,26.3357483 L68.1607323,26.5077036 L66.0757749,26.5077036 Z M62.7763837,24.992348 C63.3997245,24.992348 63.9908148,24.8311416 64.5496721,24.5087239 C65.1085295,24.1863062 65.5133367,23.7671694 65.7641061,23.2513011 L65.7641061,20.8654221 L64.2057616,20.8654221 C61.7697168,20.8654221 60.5517127,21.5783128 60.5517127,23.0041155 C60.5517127,23.6274563 60.7594899,24.114658 61.1750504,24.4657351 C61.590611,24.8168121 62.1243834,24.992348 62.7763837,24.992348 Z M80.7134652,20.8224333 C80.7134652,22.599313 80.3050756,24.0268855 79.4882841,25.1051936 C78.6714926,26.1835017 77.5752889,26.7226477 76.19964,26.7226477 C74.7308483,26.7226477 73.5952386,26.2032047 72.7927767,25.1643032 L72.6960519,26.5077036 L70.8690274,26.5077036 L70.8690274,10 L72.85726,10 L72.85726,16.1581472 C73.6597218,15.1622348 74.7666726,14.664286 76.1781456,14.664286 C77.5896187,14.664286 78.6983607,15.1980584 79.5044049,16.2656193 C80.3104492,17.3331801 80.7134652,18.7947851 80.7134652,20.650478 L80.7134652,20.8224333 Z M78.7252327,20.596742 C78.7252327,19.2425877 78.4637201,18.1965371 77.9406869,17.4585588 C77.4176537,16.7205805 76.6653571,16.3515969 75.6837743,16.3515969 C74.372609,16.3515969 73.430447,16.960599 72.85726,18.1786214 L72.85726,23.2083123 C73.4662712,24.4263347 74.4155979,25.0353368 75.7052687,25.0353368 C76.6581921,25.0353368 77.3997417,24.6663532 77.9299397,23.9283749 C78.4601377,23.1903966 78.7252327,22.0798634 78.7252327,20.596742 Z M93.5886143,19.5327689 C91.8188994,19.0240655 90.5310391,18.3989427 89.7249948,17.657382 C88.9189506,16.9158213 88.5159345,16.000527 88.5159345,14.9114717 C88.5159345,13.6791196 89.0085097,12.6599367 89.9936749,11.8538925 C90.9788401,11.0478482 92.2595356,10.6448322 93.8357999,10.6448322 C94.9105256,10.6448322 95.8688083,10.8526093 96.7106767,11.2681699 C97.5525451,11.6837305 98.2045356,12.2569089 98.6666676,12.9877224 C99.1287997,13.7185358 99.3598622,14.5174033 99.3598622,15.3843486 L97.2856521,15.3843486 C97.2856521,14.4385901 96.9847334,13.6952493 96.382887,13.154304 C95.7810406,12.6133588 94.9320201,12.3428902 93.8357999,12.3428902 C92.818393,12.3428902 92.0248991,12.566788 91.4552945,13.0145904 C90.8856899,13.4623928 90.6008919,14.0839331 90.6008919,14.8792301 C90.6008919,15.5169007 90.8713604,16.0560466 91.4123057,16.4966841 C91.9532509,16.9373217 92.8739188,17.3403377 94.1743368,17.7057445 C95.4747549,18.0711512 96.4921466,18.4741673 97.2265424,18.9148048 C97.9609383,19.3554423 98.5054578,19.8695117 98.8601173,20.4570284 C99.2147767,21.0445451 99.3921038,21.7359415 99.3921038,22.5312385 C99.3921038,23.7994148 98.8977374,24.8150153 97.9089898,25.5780705 C96.9202422,26.3411258 95.5983495,26.7226477 93.943272,26.7226477 C92.8685463,26.7226477 91.8654841,26.5166617 90.9340552,26.1046835 C90.0026263,25.6927053 89.284362,25.1284828 88.779241,24.411999 C88.2741199,23.6955153 88.0215632,22.8823184 88.0215632,21.972384 L90.0957733,21.972384 C90.0957733,22.9181426 90.4450539,23.6650657 91.1436256,24.2131758 C91.8421973,24.7612859 92.7754034,25.0353368 93.943272,25.0353368 C95.0323273,25.0353368 95.8670184,24.8132302 96.4473702,24.3690102 C97.0277221,23.9247903 97.3178937,23.3193706 97.3178937,22.5527329 C97.3178937,21.7860953 97.0492163,21.1932139 96.5118534,20.7740709 C95.9744906,20.3549279 95.0000873,19.9411647 93.5886143,19.5327689 Z M103.605007,14.8792301 L103.669491,16.3408497 C104.55793,15.223135 105.718617,14.664286 107.151584,14.664286 C109.609124,14.664286 110.848622,16.0506613 110.870116,18.8234535 L110.870116,26.5077036 L108.881884,26.5077036 L108.881884,18.8127063 C108.874719,17.9744203 108.683063,17.3546712 108.306909,16.9534403 C107.930755,16.5522093 107.345038,16.3515969 106.549741,16.3515969 C105.904906,16.3515969 105.338892,16.5235504 104.851683,16.8674626 C104.364474,17.2113748 103.984743,17.6627528 103.712479,18.2216102 L103.712479,26.5077036 L101.724247,26.5077036 L101.724247,14.8792301 L103.605007,14.8792301 Z M113.341973,20.5859948 C113.341973,19.4467856 113.565871,18.4222292 114.013673,17.5122948 C114.461476,16.6023604 115.084807,15.9002168 115.883687,15.405843 C116.682566,14.9114692 117.594278,14.664286 118.61885,14.664286 C120.202279,14.664286 121.482974,15.2123879 122.460975,16.3086081 C123.438975,17.4048283 123.927968,18.8628509 123.927968,20.6827196 L123.927968,20.8224333 C123.927968,21.9544776 123.711235,22.9700782 123.277762,23.8692653 C122.844289,24.7684524 122.22454,25.4688048 121.418496,25.9703435 C120.612452,26.4718821 119.68641,26.7226477 118.640344,26.7226477 C117.06408,26.7226477 115.786967,26.1745458 114.808966,25.0783256 C113.830966,23.9821054 113.341973,22.5312476 113.341973,20.7257085 L113.341973,20.5859948 Z M115.340953,20.8224333 C115.340953,22.1121041 115.64008,23.1474076 116.238344,23.9283749 C116.836608,24.7093422 117.637267,25.09982 118.640344,25.09982 C119.650586,25.09982 120.453036,24.7039687 121.047718,23.9122541 C121.642399,23.1205395 121.939735,22.0117975 121.939735,20.5859948 C121.939735,19.3106537 121.637026,18.2771414 121.031597,17.4854268 C120.426168,16.6937122 119.621927,16.2978609 118.61885,16.2978609 C117.637267,16.2978609 116.845564,16.6883387 116.243718,17.469306 C115.641872,18.2502733 115.340953,19.3679712 115.340953,20.8224333 Z M125.894706,20.5859948 C125.894706,19.4467856 126.118604,18.4222292 126.566406,17.5122948 C127.014209,16.6023604 127.63754,15.9002168 128.43642,15.405843 C129.235299,14.9114692 130.147011,14.664286 131.171583,14.664286 C132.755012,14.664286 134.035707,15.2123879 135.013708,16.3086081 C135.991708,17.4048283 136.480701,18.8628509 136.480701,20.6827196 L136.480701,20.8224333 C136.480701,21.9544776 136.263968,22.9700782 135.830495,23.8692653 C135.397022,24.7684524 134.777273,25.4688048 133.971229,25.9703435 C133.165185,26.4718821 132.239143,26.7226477 131.193077,26.7226477 C129.616813,26.7226477 128.3397,26.1745458 127.361699,25.0783256 C126.383699,23.9821054 125.894706,22.5312476 125.894706,20.7257085 L125.894706,20.5859948 Z M127.893686,20.8224333 C127.893686,22.1121041 128.192813,23.1474076 128.791077,23.9283749 C129.389341,24.7093422 130.19,25.09982 131.193077,25.09982 C132.203319,25.09982 133.005769,24.7039687 133.600451,23.9122541 C134.195132,23.1205395 134.492468,22.0117975 134.492468,20.5859948 C134.492468,19.3106537 134.189759,18.2771414 133.58433,17.4854268 C132.978901,16.6937122 132.17466,16.2978609 131.171583,16.2978609 C130.19,16.2978609 129.398297,16.6883387 128.796451,17.469306 C128.194604,18.2502733 127.893686,19.3679712 127.893686,20.8224333 Z M140.67211,24.884876 L147.475089,24.884876 L147.475089,26.5077036 L138.243242,26.5077036 L138.243242,25.046084 L144.659322,16.5235521 L138.339967,16.5235521 L138.339967,14.8792301 L147.152673,14.8792301 L147.152673,16.2871137 L140.67211,24.884876 Z M154.364046,26.7226477 C152.787782,26.7226477 151.505295,26.2049959 150.516548,25.1696768 C149.5278,24.1343578 149.033434,22.7497737 149.033434,21.0158829 L149.033434,20.650478 C149.033434,19.4969392 149.253749,18.4670092 149.694387,17.5606572 C150.135024,16.6543052 150.751191,15.9449969 151.542906,15.432711 C152.33462,14.9204251 153.192597,14.664286 154.116861,14.664286 C155.628642,14.664286 156.803657,15.1622348 157.641943,16.1581472 C158.480229,17.1540597 158.899366,18.579841 158.899366,20.435534 L158.899366,21.2630686 L151.021666,21.2630686 C151.050326,22.4094426 151.385277,23.335484 152.02653,24.0412205 C152.667783,24.7469571 153.482771,25.09982 154.471518,25.09982 C155.173673,25.09982 155.768345,24.9565254 156.255554,24.6699319 C156.742763,24.3833384 157.169065,24.0036077 157.534471,23.5307284 L158.748905,24.4764823 C157.774487,25.9739333 156.312882,26.7226477 154.364046,26.7226477 Z M154.116861,16.2978609 C153.314399,16.2978609 152.640914,16.5898236 152.096387,17.1737579 C151.551859,17.7576922 151.215117,18.5762626 151.08615,19.6294938 L156.911134,19.6294938 L156.911134,19.4790329 C156.853815,18.4687908 156.581555,17.686044 156.094346,17.1307691 C155.607137,16.5754942 154.947982,16.2978609 154.116861,16.2978609 Z" id="Tab-Snooze" fill="#333333"></path>
        <g id="Logo" transform="translate(0.000000, -0.000000)">
            <g id="Group">
                <g id="Group-5-Copy-5" fill="#45C9F4" fill-rule="nonzero">
                    <circle id="Oval" cx="19.2021277" cy="19.2021277" r="19.2021277"></circle>
                </g>
                <path d="M16.3328406,7.07446809 C14.7002251,9.19606944 13.7359031,11.8150498 13.7359031,14.6489418 C13.7359031,21.7243029 19.7469855,27.4600162 27.1620314,27.4600162 C28.2494408,27.4600162 29.3066567,27.3366643 30.3191489,27.1038249 C27.8756232,30.2792128 23.9350581,32.3404255 19.4899581,32.3404255 C12.0749122,32.3404255 6.06382979,26.6047122 6.06382979,19.5293511 C6.06382979,13.4915851 10.4411472,8.42936092 16.3328406,7.07446809 Z" id="Combined-Shape-Copy-3" fill="#FFFFFF" fill-rule="nonzero"></path>
            </g>
        </g>
    </g>
</svg>