<?xml version="1.0" encoding="UTF-8"?>
<svg width="658px" height="946px" viewBox="0 0 658 946" version="1.1" xmlns="http://www.w3.org/2000/svg" xmlns:xlink="http://www.w3.org/1999/xlink">
    <!-- Generator: Sketch 52.6 (67491) - http://www.bohemiancoding.com/sketch -->
    <title>tutorial_article</title>
    <desc>Created with Sketch.</desc>
    <defs>
        <rect id="path-1" x="0" y="0" width="300" height="300" rx="4"></rect>
    </defs>
    <g id="tutorial_article" stroke="none" stroke-width="1" fill="none" fill-rule="evenodd">
        <rect fill="#FDFDFD" x="0" y="0" width="658" height="946"></rect>
        <path d="M31.7364644,107.374916 C31.5496728,107.374916 31.4562783,107.258521 31.4562783,107.02573 L31.4562783,67.2185132 L22.3502325,67.2185132 C22.116743,67.2185132 22,67.102119 22,66.8693271 L22.0700465,59.0475583 C22.0700465,58.8613248 22.1634409,58.7682094 22.3502325,58.7682094 L48.9679049,58.7682094 C49.2013944,58.7682094 49.3181375,58.8613248 49.3181375,59.0475583 L49.3181375,66.8693271 C49.3181375,67.102119 49.224743,67.2185132 49.0379514,67.2185132 L39.8618591,67.2185132 L39.9319056,107.02573 C39.9319056,107.258521 39.8385112,107.374916 39.6517196,107.374916 L31.7364644,107.374916 Z M47.1466958,107.02573 L55.8324625,59.0475583 C55.8791604,58.8613248 55.9959035,58.7682094 56.1826951,58.7682094 L66.3394385,58.7682094 C66.5262301,58.7682094 66.6429731,58.8613248 66.689671,59.0475583 L75.0252053,107.02573 C75.0719032,107.258521 74.9785088,107.374916 74.7450192,107.374916 L66.969857,107.374916 C66.7830654,107.374916 66.6663224,107.258521 66.6196245,107.02573 L65.8491129,101.927612 L56.3227881,101.927612 L55.5522765,107.02573 C55.5055786,107.258521 55.3888356,107.374916 55.202044,107.374916 L47.4268818,107.374916 C47.2400902,107.374916 47.1466958,107.258521 47.1466958,107.02573 Z M57.7237182,94.4550296 L64.4481828,94.4550296 L61.5762761,74.8307704 L61.155997,72.2467932 L60.875811,74.8307704 L57.7237182,94.4550296 Z M79.7183212,107.374916 C79.5315296,107.374916 79.4381352,107.258521 79.4381352,107.02573 L79.5782282,59.0475583 C79.5782282,58.8613248 79.6716226,58.7682094 79.8584142,58.7682094 L93.3073434,58.7682094 C95.9691239,58.7682094 98.3506813,59.4083776 100.452087,60.688733 C102.553493,61.9690885 104.211243,63.6568045 105.425389,65.7519316 C106.639535,67.8470587 107.246598,70.1283851 107.246598,72.5959793 C107.246598,74.5979897 106.7913,76.4602969 105.880691,78.182957 C104.970082,79.9056171 103.884372,81.3023476 102.623529,82.3731903 C103.977768,83.7233833 105.028455,85.2830657 105.775622,87.0522841 C106.522788,88.8215026 106.896366,90.6838099 106.896366,92.6392619 C106.896366,95.3396479 106.242605,97.8072051 104.935063,100.042007 C103.627522,102.27681 101.864703,104.057641 99.6465522,105.384555 C97.4284018,106.711469 94.9651243,107.374916 92.2566458,107.374916 L79.7183212,107.374916 Z M87.9838089,78.0432826 L93.3073434,78.0432826 C94.9417701,78.0432826 96.2609661,77.472951 97.264971,76.3322706 C98.2689759,75.1915903 98.7709709,73.9461723 98.7709709,72.5959793 C98.7709709,71.1061111 98.233953,69.8141354 97.1599012,68.7200135 C96.0858494,67.6258916 94.8016763,67.0788388 93.3073434,67.0788388 L87.9838089,67.0788388 L87.9838089,78.0432826 Z M87.9137624,98.8547746 L92.2566458,98.8547746 C93.9377704,98.8547746 95.3853837,98.2378853 96.5995292,97.0040882 C97.8136747,95.7702911 98.4207384,94.3153636 98.4207384,92.6392619 C98.4207384,90.9631602 97.8136747,89.519872 96.5995292,88.3093541 C95.3853837,87.0988362 93.9377704,86.4935864 92.2566458,86.4935864 L87.9838089,86.4935864 L87.9137624,98.8547746 Z M134.214503,108.073288 C131.692816,108.073288 129.392979,107.43312 127.314922,106.152764 C125.236865,104.872409 123.579115,103.173053 122.34162,101.054647 C121.104126,98.9362408 120.485388,96.5967172 120.485388,94.0360063 L120.485388,90.8234941 C120.485388,90.5907022 120.602131,90.474308 120.83562,90.474308 L128.680829,90.474308 C128.867621,90.474308 128.961015,90.5907022 128.961015,90.8234941 L128.961015,94.0360063 C128.961015,95.5724329 129.474684,96.8876874 130.502038,97.9818093 C131.529392,99.0759313 132.766868,99.622984 134.214503,99.622984 C135.662138,99.622984 136.899614,99.0642918 137.926968,97.9468907 C138.954322,96.8294896 139.467991,95.5258745 139.467991,94.0360063 C139.467991,92.3133462 138.347258,90.8235004 136.105759,89.5664241 C135.358592,89.1473987 134.191162,88.4955912 132.603433,87.6109819 C131.015705,86.7263727 129.521394,85.8883344 128.120457,85.0968419 C125.552072,83.6069738 123.649161,81.7330271 122.411667,79.4749456 C121.174172,77.2168642 120.555434,74.6678311 120.555434,71.8277699 C120.555434,69.2205006 121.185847,66.880977 122.44669,64.8091291 C123.707533,62.7372812 125.376958,61.0961229 127.455015,59.885605 C129.533072,58.6750871 131.786212,58.0698372 134.214503,58.0698372 C136.689492,58.0698372 138.965981,58.6867265 141.044037,59.9205236 C143.122094,61.1543207 144.779845,62.8071184 146.017339,64.8789663 C147.254834,66.9508142 147.873572,69.2670589 147.873572,71.8277699 L147.873572,77.554422 C147.873572,77.7406555 147.780177,77.8337709 147.593386,77.8337709 L139.748177,77.8337709 C139.561385,77.8337709 139.467991,77.7406555 139.467991,77.554422 L139.397945,71.8277699 C139.397945,70.1982265 138.884275,68.8713326 137.856921,67.8470482 C136.829568,66.8227639 135.61544,66.3106294 134.214503,66.3106294 C132.766868,66.3106294 131.529392,66.8576821 130.502038,67.9518041 C129.474684,69.045926 128.961015,70.3379017 128.961015,71.8277699 C128.961015,73.3641964 129.287896,74.6445327 129.941666,75.668817 C130.595437,76.6931014 131.786216,77.6708127 133.514038,78.6019803 C133.747528,78.7416555 134.202825,78.9860833 134.879945,79.3352712 C135.557064,79.684459 136.292545,80.0801993 137.08641,80.5225039 C137.880274,80.9648086 138.592407,81.3489094 139.222828,81.6748181 C139.85325,82.0007268 140.238502,82.2102363 140.378596,82.3033531 C142.713491,83.6069877 144.55803,85.2015884 145.91227,87.0872028 C147.266509,88.9728172 147.943618,91.2890619 147.943618,94.0360063 C147.943618,96.689834 147.32488,99.0759152 146.087386,101.194322 C144.849891,103.312728 143.192141,104.988804 141.114084,106.222601 C139.036027,107.456399 136.73619,108.073288 134.214503,108.073288 Z M153.477292,107.374916 C153.103709,107.374916 152.91692,107.211964 152.91692,106.886055 L152.846874,59.3269072 C152.846874,58.9544402 153.033663,58.7682094 153.407246,58.7682094 L159.711431,58.7682094 L171.549291,86.2840747 L171.199058,59.3269072 C171.199058,58.9544402 171.409196,58.7682094 171.829477,58.7682094 L178.764081,58.7682094 C179.044268,58.7682094 179.18436,58.9544402 179.18436,59.3269072 L179.254407,106.955892 C179.254407,107.235243 179.137664,107.374916 178.904174,107.374916 L172.740082,107.374916 L160.622036,81.6748181 L161.112361,106.816218 C161.112361,107.188685 160.902224,107.374916 160.481943,107.374916 L153.477292,107.374916 Z M198.307056,108.073288 C195.785369,108.073288 193.485532,107.43312 191.407475,106.152764 C189.329419,104.872409 187.659994,103.173053 186.39915,101.054647 C185.138307,98.9362408 184.507895,96.5967172 184.507895,94.0360063 L184.577941,71.8976071 C184.577941,69.3368962 185.196679,67.0090121 186.434174,64.9138849 C187.671668,62.8187578 189.341093,61.1426813 191.442499,59.885605 C193.543904,58.6285287 195.832067,58 198.307056,58 C200.828743,58 203.116906,58.6285287 205.171614,59.885605 C207.226322,61.1426813 208.872398,62.8187578 210.109893,64.9138849 C211.347387,67.0090121 211.966125,69.3368962 211.966125,71.8976071 L212.036172,94.0360063 C212.036172,96.5967172 211.417434,98.9362408 210.179939,101.054647 C208.942445,103.173053 207.284694,104.872409 205.206637,106.152764 C203.12858,107.43312 200.828743,108.073288 198.307056,108.073288 Z M198.307056,99.622984 C199.707993,99.622984 200.933795,99.0526524 201.984498,97.9119721 C203.035201,96.7712918 203.560544,95.4793161 203.560544,94.0360063 L203.490498,71.8976071 C203.490498,70.3611805 203.000177,69.0575654 202.019521,67.9867227 C201.038865,66.9158799 199.801389,66.3804666 198.307056,66.3804666 C196.859421,66.3804666 195.621945,66.9042405 194.594591,67.9518041 C193.567238,68.9993676 193.053568,70.3146221 193.053568,71.8976071 L193.053568,94.0360063 C193.053568,95.5724329 193.567238,96.8876874 194.594591,97.9818093 C195.621945,99.0759313 196.859421,99.622984 198.307056,99.622984 Z M230.31831,108.073288 C227.796623,108.073288 225.496786,107.43312 223.418729,106.152764 C221.340672,104.872409 219.671247,103.173053 218.410404,101.054647 C217.14956,98.9362408 216.519148,96.5967172 216.519148,94.0360063 L216.589194,71.8976071 C216.589194,69.3368962 217.207932,67.0090121 218.445427,64.9138849 C219.682921,62.8187578 221.352346,61.1426813 223.453752,59.885605 C225.555158,58.6285287 227.843321,58 230.31831,58 C232.839997,58 235.12816,58.6285287 237.182867,59.885605 C239.237575,61.1426813 240.883652,62.8187578 242.121146,64.9138849 C243.35864,67.0090121 243.977378,69.3368962 243.977378,71.8976071 L244.047425,94.0360063 C244.047425,96.5967172 243.428687,98.9362408 242.191193,101.054647 C240.953698,103.173053 239.295947,104.872409 237.217891,106.152764 C235.139834,107.43312 232.839997,108.073288 230.31831,108.073288 Z M230.31831,99.622984 C231.719247,99.622984 232.945048,99.0526524 233.995751,97.9119721 C235.046454,96.7712918 235.571798,95.4793161 235.571798,94.0360063 L235.501751,71.8976071 C235.501751,70.3611805 235.011431,69.0575654 234.030775,67.9867227 C233.050119,66.9158799 231.812643,66.3804666 230.31831,66.3804666 C228.870675,66.3804666 227.633199,66.9042405 226.605845,67.9518041 C225.578491,68.9993676 225.064822,70.3146221 225.064822,71.8976071 L225.064822,94.0360063 C225.064822,95.5724329 225.578491,96.8876874 226.605845,97.9818093 C227.633199,99.0759313 228.870675,99.622984 230.31831,99.622984 Z M246.779239,107.374916 C246.545749,107.374916 246.429006,107.258521 246.429006,107.02573 L246.499053,99.4134724 L263.660447,66.7296527 L247.409657,66.7296527 C247.222866,66.7296527 247.129471,66.6365373 247.129471,66.4503038 L247.129471,59.1173955 C247.129471,58.8846036 247.222866,58.7682094 247.409657,58.7682094 L272.766493,58.7682094 C272.999982,58.7682094 273.116725,58.8846036 273.116725,59.1173955 L273.116725,66.6598155 L256.025378,99.2039607 L272.906586,99.2039607 C273.093377,99.2039607 273.186772,99.3203549 273.186772,99.5531468 L273.256818,107.02573 C273.256818,107.258521 273.140075,107.374916 272.906586,107.374916 L246.779239,107.374916 Z M277.949934,107.374916 C277.763142,107.374916 277.669748,107.258521 277.669748,107.02573 L277.739794,59.0475583 C277.739794,58.8613248 277.833189,58.7682094 278.01998,58.7682094 L300.504909,58.7682094 C300.691701,58.7682094 300.785095,58.8846036 300.785095,59.1173955 L300.785095,66.9391644 C300.785095,67.1253979 300.691701,67.2185132 300.504909,67.2185132 L286.145375,67.2185132 L286.145375,78.1131198 L300.504909,78.1131198 C300.691701,78.1131198 300.785095,78.2062352 300.785095,78.3924687 L300.855142,86.2840747 C300.855142,86.4703082 300.761747,86.5634236 300.574956,86.5634236 L286.145375,86.5634236 L286.145375,98.7849374 L300.574956,98.7849374 C300.761747,98.7849374 300.855142,98.9013316 300.855142,99.1341235 L300.855142,107.095567 C300.855142,107.2818 300.761747,107.374916 300.574956,107.374916 L277.949934,107.374916 Z M317.806396,107.374916 C317.572907,107.374916 317.456164,107.258521 317.456164,107.02573 L317.52621,59.0475583 C317.52621,58.8613248 317.619604,58.7682094 317.806396,58.7682094 L325.651605,58.7682094 C325.838396,58.7682094 325.931791,58.8613248 325.931791,59.0475583 L326.001837,107.02573 C326.001837,107.258521 325.908443,107.374916 325.721651,107.374916 L317.806396,107.374916 Z M344.073836,108.073288 C341.552149,108.073288 339.252312,107.43312 337.174255,106.152764 C335.096198,104.872409 333.438448,103.173053 332.200953,101.054647 C330.963459,98.9362408 330.344721,96.5967172 330.344721,94.0360063 L330.344721,90.8234941 C330.344721,90.5907022 330.461464,90.474308 330.694953,90.474308 L338.540162,90.474308 C338.726954,90.474308 338.820348,90.5907022 338.820348,90.8234941 L338.820348,94.0360063 C338.820348,95.5724329 339.334017,96.8876874 340.361371,97.9818093 C341.388725,99.0759313 342.626201,99.622984 344.073836,99.622984 C345.521471,99.622984 346.758947,99.0642918 347.786301,97.9468907 C348.813655,96.8294896 349.327324,95.5258745 349.327324,94.0360063 C349.327324,92.3133462 348.206591,90.8235004 345.965092,89.5664241 C345.217925,89.1473987 344.050495,88.4955912 342.462766,87.6109819 C340.875038,86.7263727 339.380727,85.8883344 337.97979,85.0968419 C335.411405,83.6069738 333.508494,81.7330271 332.271,79.4749456 C331.033505,77.2168642 330.414767,74.6678311 330.414767,71.8277699 C330.414767,69.2205006 331.045179,66.880977 332.306023,64.8091291 C333.566866,62.7372812 335.236291,61.0961229 337.314348,59.885605 C339.392405,58.6750871 341.645545,58.0698372 344.073836,58.0698372 C346.548825,58.0698372 348.825314,58.6867265 350.90337,59.9205236 C352.981427,61.1543207 354.639178,62.8071184 355.876672,64.8789663 C357.114167,66.9508142 357.732905,69.2670589 357.732905,71.8277699 L357.732905,77.554422 C357.732905,77.7406555 357.63951,77.8337709 357.452719,77.8337709 L349.60751,77.8337709 C349.420718,77.8337709 349.327324,77.7406555 349.327324,77.554422 L349.257277,71.8277699 C349.257277,70.1982265 348.743608,68.8713326 347.716254,67.8470482 C346.6889,66.8227639 345.474773,66.3106294 344.073836,66.3106294 C342.626201,66.3106294 341.388725,66.8576821 340.361371,67.9518041 C339.334017,69.045926 338.820348,70.3379017 338.820348,71.8277699 C338.820348,73.3641964 339.147228,74.6445327 339.800999,75.668817 C340.45477,76.6931014 341.645548,77.6708127 343.373371,78.6019803 C343.60686,78.7416555 344.062158,78.9860833 344.739278,79.3352712 C345.416397,79.684459 346.151878,80.0801993 346.945743,80.5225039 C347.739607,80.9648086 348.451739,81.3489094 349.082161,81.6748181 C349.712583,82.0007268 350.097835,82.2102363 350.237928,82.3033531 C352.572824,83.6069877 354.417363,85.2015884 355.771602,87.0872028 C357.125842,88.9728172 357.802951,91.2890619 357.802951,94.0360063 C357.802951,96.689834 357.184213,99.0759152 355.946719,101.194322 C354.709224,103.312728 353.051474,104.988804 350.973417,106.222601 C348.89536,107.456399 346.595523,108.073288 344.073836,108.073288 Z M384.980996,108.073288 C382.459309,108.073288 380.159471,107.43312 378.081415,106.152764 C376.003358,104.872409 374.345607,103.173053 373.108113,101.054647 C371.870618,98.9362408 371.25188,96.5967172 371.25188,94.0360063 L371.25188,90.8234941 C371.25188,90.5907022 371.368623,90.474308 371.602113,90.474308 L379.447322,90.474308 C379.634113,90.474308 379.727508,90.5907022 379.727508,90.8234941 L379.727508,94.0360063 C379.727508,95.5724329 380.241177,96.8876874 381.268531,97.9818093 C382.295885,99.0759313 383.533361,99.622984 384.980996,99.622984 C386.428631,99.622984 387.666107,99.0642918 388.69346,97.9468907 C389.720814,96.8294896 390.234484,95.5258745 390.234484,94.0360063 C390.234484,92.3133462 389.113751,90.8235004 386.872251,89.5664241 C386.125085,89.1473987 384.957655,88.4955912 383.369926,87.6109819 C381.782197,86.7263727 380.287887,85.8883344 378.88695,85.0968419 C376.318565,83.6069738 374.415654,81.7330271 373.178159,79.4749456 C371.940665,77.2168642 371.321927,74.6678311 371.321927,71.8277699 C371.321927,69.2205006 371.952339,66.880977 373.213183,64.8091291 C374.474026,62.7372812 376.143451,61.0961229 378.221508,59.885605 C380.299564,58.6750871 382.552705,58.0698372 384.980996,58.0698372 C387.455985,58.0698372 389.732473,58.6867265 391.81053,59.9205236 C393.888587,61.1543207 395.546337,62.8071184 396.783832,64.8789663 C398.021326,66.9508142 398.640064,69.2670589 398.640064,71.8277699 L398.640064,77.554422 C398.640064,77.7406555 398.54667,77.8337709 398.359878,77.8337709 L390.51467,77.8337709 C390.327878,77.8337709 390.234484,77.7406555 390.234484,77.554422 L390.164437,71.8277699 C390.164437,70.1982265 389.650768,68.8713326 388.623414,67.8470482 C387.59606,66.8227639 386.381933,66.3106294 384.980996,66.3106294 C383.533361,66.3106294 382.295885,66.8576821 381.268531,67.9518041 C380.241177,69.045926 379.727508,70.3379017 379.727508,71.8277699 C379.727508,73.3641964 380.054388,74.6445327 380.708159,75.668817 C381.361929,76.6931014 382.552708,77.6708127 384.280531,78.6019803 C384.51402,78.7416555 384.969318,78.9860833 385.646437,79.3352712 C386.323557,79.684459 387.059038,80.0801993 387.852902,80.5225039 C388.646767,80.9648086 389.358899,81.3489094 389.989321,81.6748181 C390.619742,82.0007268 391.004994,82.2102363 391.145088,82.3033531 C393.479983,83.6069877 395.324523,85.2015884 396.678762,87.0872028 C398.033001,88.9728172 398.710111,91.2890619 398.710111,94.0360063 C398.710111,96.689834 398.091373,99.0759152 396.853878,101.194322 C395.616384,103.312728 393.958633,104.988804 391.880576,106.222601 C389.80252,107.456399 387.502682,108.073288 384.980996,108.073288 Z M399.830855,107.02573 L408.516622,59.0475583 C408.56332,58.8613248 408.680063,58.7682094 408.866854,58.7682094 L419.023598,58.7682094 C419.210389,58.7682094 419.327132,58.8613248 419.37383,59.0475583 L427.709364,107.02573 C427.756062,107.258521 427.662668,107.374916 427.429178,107.374916 L419.654016,107.374916 C419.467225,107.374916 419.350482,107.258521 419.303784,107.02573 L418.533272,101.927612 L409.006947,101.927612 L408.236436,107.02573 C408.189738,107.258521 408.072995,107.374916 407.886203,107.374916 L400.111041,107.374916 C399.924249,107.374916 399.830855,107.258521 399.830855,107.02573 Z M410.407877,94.4550296 L417.132342,94.4550296 L414.260435,74.8307704 L413.840156,72.2467932 L413.55997,74.8307704 L410.407877,94.4550296 Z M435.484527,107.374916 C435.297735,107.374916 435.180992,107.258521 435.134294,107.02573 L425.467876,59.0475583 C425.421178,58.8613248 425.514573,58.7682094 425.748062,58.7682094 L433.663317,58.7682094 C433.850109,58.7682094 433.966852,58.8613248 434.01355,59.0475583 L439.757363,91.0330058 L445.361084,59.0475583 C445.407782,58.8613248 445.524525,58.7682094 445.711317,58.7682094 L453.556525,58.7682094 C453.790015,58.7682094 453.883409,58.8613248 453.836711,59.0475583 L444.310386,107.02573 C444.263688,107.258521 444.146945,107.374916 443.960154,107.374916 L435.484527,107.374916 Z M458.319688,107.374916 C458.086198,107.374916 457.969455,107.258521 457.969455,107.02573 L458.039502,59.0475583 C458.039502,58.8613248 458.132896,58.7682094 458.319688,58.7682094 L466.164896,58.7682094 C466.351688,58.7682094 466.445082,58.8613248 466.445082,59.0475583 L466.515129,107.02573 C466.515129,107.258521 466.421734,107.374916 466.234943,107.374916 L458.319688,107.374916 Z M473.30964,107.374916 C472.936057,107.374916 472.749268,107.211964 472.749268,106.886055 L472.679221,59.3269072 C472.679221,58.9544402 472.86601,58.7682094 473.239594,58.7682094 L479.543779,58.7682094 L491.381639,86.2840747 L491.031406,59.3269072 C491.031406,58.9544402 491.241544,58.7682094 491.661825,58.7682094 L498.596429,58.7682094 C498.876616,58.7682094 499.016708,58.9544402 499.016708,59.3269072 L499.086754,106.955892 C499.086754,107.235243 498.970011,107.374916 498.736522,107.374916 L492.572429,107.374916 L480.454384,81.6748181 L480.944709,106.816218 C480.944709,107.188685 480.734572,107.374916 480.314291,107.374916 L473.30964,107.374916 Z M517.999311,108.073288 C515.477624,108.073288 513.189461,107.444759 511.134753,106.187683 C509.080046,104.930607 507.433969,103.242891 506.196475,101.124484 C504.95898,99.006078 504.340242,96.6432756 504.340242,94.0360063 L504.340242,71.8976071 C504.340242,69.3834545 504.95898,67.0672099 506.196475,64.9488035 C507.433969,62.8303972 509.09172,61.1426813 511.169777,59.885605 C513.247833,58.6285287 515.524322,58 517.999311,58 C520.567696,58 522.890882,58.6168893 524.968938,59.8506864 C527.046995,61.0844835 528.693072,62.7489206 529.907217,64.8440477 C531.121363,66.9391748 531.728426,69.2903378 531.728426,71.8976071 L531.728426,75.1101193 C531.728426,75.2963528 531.611683,75.3894682 531.378194,75.3894682 L523.532985,75.3894682 C523.346193,75.3894682 523.252799,75.2963528 523.252799,75.1101193 L523.252799,72.4563049 C523.252799,70.6870864 522.750804,69.2205194 521.746799,68.0565599 C520.742794,66.8926004 519.493644,66.3106294 517.999311,66.3106294 C516.645072,66.3106294 515.442619,66.8693215 514.391916,67.9867227 C513.341213,69.1041238 512.81587,70.4077389 512.81587,71.8976071 L512.81587,94.0360063 C512.81587,95.5724329 513.329539,96.8876874 514.356893,97.9818093 C515.384247,99.0759313 516.598374,99.622984 517.999311,99.622984 C519.493644,99.622984 520.742794,99.0875707 521.746799,98.0167279 C522.750804,96.9458852 523.252799,95.6189912 523.252799,94.0360063 L523.252799,90.6139824 L518.349544,90.6139824 C518.116054,90.6139824 517.999311,90.4975882 517.999311,90.2647963 L517.999311,82.4430275 C517.999311,82.2102356 518.116054,82.0938414 518.349544,82.0938414 L531.44824,82.0938414 C531.635032,82.0938414 531.728426,82.2102356 531.728426,82.4430275 L531.728426,94.0360063 C531.728426,96.6432756 531.109688,99.006078 529.872194,101.124484 C528.634699,103.242891 526.988623,104.930607 524.933915,106.187683 C522.879207,107.444759 520.567696,108.073288 517.999311,108.073288 Z M554.073262,107.374916 C553.88647,107.374916 553.793076,107.258521 553.793076,107.02573 L553.793076,67.2185132 L544.68703,67.2185132 C544.45354,67.2185132 544.336797,67.102119 544.336797,66.8693271 L544.406844,59.0475583 C544.406844,58.8613248 544.500238,58.7682094 544.68703,58.7682094 L571.304702,58.7682094 C571.538192,58.7682094 571.654935,58.8613248 571.654935,59.0475583 L571.654935,66.8693271 C571.654935,67.102119 571.56154,67.2185132 571.374749,67.2185132 L562.198656,67.2185132 L562.268703,107.02573 C562.268703,107.258521 562.175309,107.374916 561.988517,107.374916 L554.073262,107.374916 Z M575.3674,107.374916 C575.180608,107.374916 575.087214,107.258521 575.087214,107.02573 L575.15726,59.0475583 C575.15726,58.8613248 575.274003,58.7682094 575.507493,58.7682094 L583.282655,58.7682094 C583.516144,58.7682094 583.632887,58.8613248 583.632887,59.0475583 L583.562841,78.0432826 L594.069817,78.0432826 L594.069817,59.0475583 C594.069817,58.8613248 594.163211,58.7682094 594.350003,58.7682094 L602.125165,58.7682094 C602.358655,58.7682094 602.475398,58.8613248 602.475398,59.0475583 L602.615491,107.02573 C602.615491,107.258521 602.498748,107.374916 602.265258,107.374916 L594.420049,107.374916 C594.18656,107.374916 594.069817,107.258521 594.069817,107.02573 L594.069817,86.4935864 L583.562841,86.4935864 L583.562841,107.02573 C583.562841,107.258521 583.469446,107.374916 583.282655,107.374916 L575.3674,107.374916 Z M608.63949,107.374916 C608.452699,107.374916 608.359304,107.258521 608.359304,107.02573 L608.429351,59.0475583 C608.429351,58.8613248 608.522745,58.7682094 608.709537,58.7682094 L631.194465,58.7682094 C631.381257,58.7682094 631.474651,58.8846036 631.474651,59.1173955 L631.474651,66.9391644 C631.474651,67.1253979 631.381257,67.2185132 631.194465,67.2185132 L616.834931,67.2185132 L616.834931,78.1131198 L631.194465,78.1131198 C631.381257,78.1131198 631.474651,78.2062352 631.474651,78.3924687 L631.544698,86.2840747 C631.544698,86.4703082 631.451303,86.5634236 631.264512,86.5634236 L616.834931,86.5634236 L616.834931,98.7849374 L631.264512,98.7849374 C631.451303,98.7849374 631.544698,98.9013316 631.544698,99.1341235 L631.544698,107.095567 C631.544698,107.2818 631.451303,107.374916 631.264512,107.374916 L608.63949,107.374916 Z M30.72079,182.20051 C30.5339984,182.20051 30.4172554,182.084116 30.3705575,181.851324 L22.1050698,133.873153 C22.0583719,133.686919 22.1284177,133.593804 22.3152093,133.593804 L30.160418,133.593804 C30.3472096,133.593804 30.4639526,133.686919 30.5106505,133.873153 L34.9936269,165.439577 L39.6166963,133.873153 C39.6633942,133.686919 39.8034858,133.593804 40.0369754,133.593804 L46.3411609,133.593804 C46.5279526,133.593804 46.6446956,133.686919 46.6913935,133.873153 L51.2444164,165.439577 L55.7974393,133.873153 C55.8441372,133.686919 55.9608802,133.593804 56.1476718,133.593804 L63.922834,133.593804 C64.1563235,133.593804 64.2497179,133.686919 64.20302,133.873153 L55.8674858,181.851324 C55.8207879,181.944441 55.7507421,182.025917 55.6573463,182.095754 L55.5172533,182.20051 L47.041626,182.20051 C46.9015323,182.20051 46.7847893,182.084116 46.6913935,181.851324 L43.1190216,156.779761 L39.5466498,181.851324 C39.4999519,182.084116 39.3832089,182.20051 39.1964173,182.20051 L30.72079,182.20051 Z M79.8934374,182.898882 C77.3717506,182.898882 75.0719133,182.258714 72.9938566,180.978359 C70.9157998,179.698003 69.2463748,177.998648 67.9855314,175.880242 C66.724688,173.761835 66.0942757,171.422312 66.0942757,168.861601 L66.1643222,146.723202 C66.1643222,144.162491 66.7830602,141.834607 68.0205546,139.739479 C69.2580491,137.644352 70.9274741,135.968276 73.0288798,134.711199 C75.1302855,133.454123 77.4184485,132.825594 79.8934374,132.825594 C82.4151243,132.825594 84.7032873,133.454123 86.7579951,134.711199 C88.8127029,135.968276 90.4587793,137.644352 91.6962738,139.739479 C92.9337682,141.834607 93.5525062,144.162491 93.5525062,146.723202 L93.6225527,168.861601 C93.6225527,171.422312 93.0038147,173.761835 91.7663203,175.880242 C90.5288258,177.998648 88.8710751,179.698003 86.7930183,180.978359 C84.7149616,182.258714 82.4151243,182.898882 79.8934374,182.898882 Z M79.8934374,174.448579 C81.2943746,174.448579 82.5201762,173.878247 83.570879,172.737567 C84.6215819,171.596886 85.1469254,170.304911 85.1469254,168.861601 L85.0768789,146.723202 C85.0768789,145.186775 84.5865583,143.88316 83.6059023,142.812317 C82.6252463,141.741474 81.3877704,141.206061 79.8934374,141.206061 C78.4458024,141.206061 77.2083265,141.729835 76.1809726,142.777399 C75.1536187,143.824962 74.6399495,145.140217 74.6399495,146.723202 L74.6399495,168.861601 C74.6399495,170.398027 75.1536187,171.713282 76.1809726,172.807404 C77.2083265,173.901526 78.4458024,174.448579 79.8934374,174.448579 Z M99.2262732,182.20051 C99.0394816,182.20051 98.9460872,182.084116 98.9460872,181.851324 L99.0861802,133.873153 C99.0861802,133.686919 99.1795746,133.593804 99.3663662,133.593804 L113.51576,133.593804 C116.037447,133.593804 118.360633,134.210693 120.485388,135.44449 C122.610142,136.678287 124.302916,138.331085 125.56376,140.402933 C126.824603,142.474781 127.455015,144.814304 127.455015,147.421574 C127.455015,149.144234 127.198181,150.692277 126.684504,152.065749 C126.170827,153.439221 125.563763,154.603163 124.863294,155.55761 C124.162826,156.512057 123.532414,157.222062 122.972039,157.687645 C125.493726,160.481148 126.75455,163.763465 126.75455,167.534694 L126.824597,181.851324 C126.824597,182.084116 126.707854,182.20051 126.474364,182.20051 L118.559109,182.20051 C118.372317,182.20051 118.278923,182.130674 118.278923,181.990998 L118.278923,167.534694 C118.278923,165.858592 117.683534,164.403664 116.492737,163.169867 C115.30194,161.93607 113.842653,161.319181 112.11483,161.319181 L107.491761,161.319181 L107.421714,181.851324 C107.421714,182.084116 107.32832,182.20051 107.141528,182.20051 L99.2262732,182.20051 Z M107.491761,152.938714 L113.51576,152.938714 C114.963395,152.938714 116.247569,152.403301 117.368318,151.332458 C118.489068,150.261615 119.049434,148.958 119.049434,147.421574 C119.049434,145.931706 118.500742,144.651369 117.403342,143.580527 C116.305941,142.509684 115.010093,141.97427 113.51576,141.97427 L107.491761,141.97427 L107.491761,152.938714 Z M132.988689,182.20051 C132.801898,182.20051 132.708503,182.084116 132.708503,181.851324 L132.77855,133.94299 C132.77855,133.710198 132.895293,133.593804 133.128782,133.593804 L140.903944,133.593804 C141.137434,133.593804 141.254177,133.710198 141.254177,133.94299 L141.18413,173.610532 L155.613711,173.610532 C155.8472,173.610532 155.963943,173.726926 155.963943,173.959718 L155.963943,181.851324 C155.963943,182.084116 155.8472,182.20051 155.613711,182.20051 L132.988689,182.20051 Z M160.867199,182.20051 C160.633709,182.20051 160.516966,182.084116 160.516966,181.851324 L160.657059,133.873153 C160.657059,133.686919 160.750454,133.593804 160.937245,133.593804 L174.035942,133.523967 C176.604327,133.477408 178.950861,134.082658 181.075616,135.339734 C183.20037,136.596811 184.893144,138.284527 186.153987,140.402933 C187.414831,142.521339 188.045243,144.860863 188.045243,147.421574 L188.045243,167.464856 C188.045243,170.165242 187.391482,172.62116 186.083941,174.832683 C184.7764,177.044206 183.025255,178.801759 180.830453,180.105393 C178.635652,181.409028 176.1607,182.084114 173.405523,182.130673 L160.867199,182.20051 Z M169.06264,173.610532 L173.405523,173.610532 C175.133346,173.610532 176.592633,173.005282 177.78343,171.794764 C178.974227,170.584246 179.569616,169.140958 179.569616,167.464856 L179.569616,147.351737 C179.569616,145.861868 179.020924,144.569893 177.923523,143.475771 C176.826122,142.381649 175.530275,141.857875 174.035942,141.904433 L169.132686,141.97427 L169.06264,173.610532 Z M192.177987,191 L192.177987,186.670092 C193.345435,186.670092 194.33775,186.227794 195.154964,185.343185 C195.972177,184.458576 196.380777,183.411028 196.380777,182.20051 L192.458173,182.20051 C192.271381,182.20051 192.177987,182.107395 192.177987,181.921161 L192.177987,174.099392 C192.177987,173.913159 192.271381,173.820044 192.458173,173.820044 L200.373428,173.820044 C200.56022,173.820044 200.653614,173.913159 200.653614,174.099392 L200.653614,182.20051 C200.653614,183.830053 200.256688,185.319899 199.462824,186.670092 C198.668959,188.020285 197.629947,189.079473 196.345754,189.847686 C195.061562,190.615899 193.67232,191 192.177987,191 Z M229.722914,182.898882 C227.201228,182.898882 224.90139,182.258714 222.823334,180.978359 C220.745277,179.698003 219.075852,177.998648 217.815008,175.880242 C216.554165,173.761835 215.923753,171.422312 215.923753,168.861601 L215.993799,146.723202 C215.993799,144.162491 216.612537,141.834607 217.850032,139.739479 C219.087526,137.644352 220.756951,135.968276 222.858357,134.711199 C224.959762,133.454123 227.247925,132.825594 229.722914,132.825594 C232.244601,132.825594 234.532764,133.454123 236.587472,134.711199 C238.64218,135.968276 240.288256,137.644352 241.525751,139.739479 C242.763245,141.834607 243.381983,144.162491 243.381983,146.723202 L243.45203,168.861601 C243.45203,171.422312 242.833292,173.761835 241.595797,175.880242 C240.358303,177.998648 238.700552,179.698003 236.622495,180.978359 C234.544439,182.258714 232.244601,182.898882 229.722914,182.898882 Z M229.722914,174.448579 C231.123852,174.448579 232.349653,173.878247 233.400356,172.737567 C234.451059,171.596886 234.976402,170.304911 234.976402,168.861601 L234.906356,146.723202 C234.906356,145.186775 234.416035,143.88316 233.435379,142.812317 C232.454723,141.741474 231.217247,141.206061 229.722914,141.206061 C228.275279,141.206061 227.037803,141.729835 226.01045,142.777399 C224.983096,143.824962 224.469426,145.140217 224.469426,146.723202 L224.469426,168.861601 C224.469426,170.398027 224.983096,171.713282 226.01045,172.807404 C227.037803,173.901526 228.275279,174.448579 229.722914,174.448579 Z M249.405983,182.20051 C249.032399,182.20051 248.845611,182.037558 248.845611,181.71165 L248.775564,134.152502 C248.775564,133.780035 248.962353,133.593804 249.335936,133.593804 L255.640122,133.593804 L267.477981,161.109669 L267.127749,134.152502 C267.127749,133.780035 267.337886,133.593804 267.758167,133.593804 L274.692771,133.593804 C274.972959,133.593804 275.11305,133.780035 275.11305,134.152502 L275.183097,181.781487 C275.183097,182.060837 275.066354,182.20051 274.832864,182.20051 L268.668772,182.20051 L256.550726,156.500413 L257.041052,181.641812 C257.041052,182.014279 256.830914,182.20051 256.410633,182.20051 L249.405983,182.20051 Z M281.557329,182.20051 C281.370537,182.20051 281.277143,182.084116 281.277143,181.851324 L281.34719,133.873153 C281.34719,133.686919 281.440584,133.593804 281.627376,133.593804 L304.112304,133.593804 C304.299096,133.593804 304.39249,133.710198 304.39249,133.94299 L304.39249,141.764759 C304.39249,141.950992 304.299096,142.044108 304.112304,142.044108 L289.75277,142.044108 L289.75277,152.938714 L304.112304,152.938714 C304.299096,152.938714 304.39249,153.03183 304.39249,153.218063 L304.462537,161.109669 C304.462537,161.295903 304.369142,161.389018 304.182351,161.389018 L289.75277,161.389018 L289.75277,173.610532 L304.182351,173.610532 C304.369142,173.610532 304.462537,173.726926 304.462537,173.959718 L304.462537,181.921161 C304.462537,182.107395 304.369142,182.20051 304.182351,182.20051 L281.557329,182.20051 Z M328.068209,182.20051 C327.881418,182.20051 327.788023,182.084116 327.788023,181.851324 L327.788023,142.044108 L318.681977,142.044108 C318.448488,142.044108 318.331745,141.927714 318.331745,141.694922 L318.401791,133.873153 C318.401791,133.686919 318.495186,133.593804 318.681977,133.593804 L345.29965,133.593804 C345.533139,133.593804 345.649882,133.686919 345.649882,133.873153 L345.649882,141.694922 C345.649882,141.927714 345.556488,142.044108 345.369696,142.044108 L336.193604,142.044108 L336.26365,181.851324 C336.26365,182.084116 336.170256,182.20051 335.983464,182.20051 L328.068209,182.20051 Z M344.178906,181.851324 L352.864672,133.873153 C352.91137,133.686919 353.028113,133.593804 353.214905,133.593804 L363.371648,133.593804 C363.55844,133.593804 363.675183,133.686919 363.721881,133.873153 L372.057415,181.851324 C372.104113,182.084116 372.010719,182.20051 371.777229,182.20051 L364.002067,182.20051 C363.815275,182.20051 363.698532,182.084116 363.651834,181.851324 L362.881323,176.753207 L353.354998,176.753207 L352.584486,181.851324 C352.537789,182.084116 352.421046,182.20051 352.234254,182.20051 L344.459092,182.20051 C344.2723,182.20051 344.178906,182.084116 344.178906,181.851324 Z M354.755928,169.280624 L361.480393,169.280624 L358.608486,149.656365 L358.188207,147.072388 L357.908021,149.656365 L354.755928,169.280624 Z M376.750531,182.20051 C376.563739,182.20051 376.470345,182.084116 376.470345,181.851324 L376.610438,133.873153 C376.610438,133.686919 376.703832,133.593804 376.890624,133.593804 L390.339553,133.593804 C393.001334,133.593804 395.382891,134.233972 397.484297,135.514328 C399.585703,136.794683 401.243453,138.482399 402.457599,140.577526 C403.671744,142.672653 404.278808,144.95398 404.278808,147.421574 C404.278808,149.423584 403.82351,151.285891 402.912901,153.008551 C402.002292,154.731212 400.916582,156.127942 399.655739,157.198785 C401.009978,158.548978 402.060665,160.10866 402.807831,161.877879 C403.554998,163.647097 403.928576,165.509404 403.928576,167.464856 C403.928576,170.165242 403.274815,172.6328 401.967273,174.867602 C400.659732,177.102404 398.896913,178.883235 396.678762,180.210149 C394.460612,181.537063 391.997334,182.20051 389.288856,182.20051 L376.750531,182.20051 Z M385.016019,152.868877 L390.339553,152.868877 C391.97398,152.868877 393.293176,152.298545 394.297181,151.157865 C395.301186,150.017185 395.803181,148.771767 395.803181,147.421574 C395.803181,145.931706 395.266163,144.63973 394.192111,143.545608 C393.118059,142.451486 391.833886,141.904433 390.339553,141.904433 L385.016019,141.904433 L385.016019,152.868877 Z M384.945972,173.680369 L389.288856,173.680369 C390.96998,173.680369 392.417594,173.06348 393.631739,171.829683 C394.845885,170.595886 395.452948,169.140958 395.452948,167.464856 C395.452948,165.788755 394.845885,164.345467 393.631739,163.134949 C392.417594,161.924431 390.96998,161.319181 389.288856,161.319181 L385.016019,161.319181 L384.945972,173.680369 Z M418.568295,181.851324 L427.254062,133.873153 C427.30076,133.686919 427.417503,133.593804 427.604295,133.593804 L437.761038,133.593804 C437.94783,133.593804 438.064573,133.686919 438.111271,133.873153 L446.446805,181.851324 C446.493503,182.084116 446.400108,182.20051 446.166619,182.20051 L438.391457,182.20051 C438.204665,182.20051 438.087922,182.084116 438.041224,181.851324 L437.270713,176.753207 L427.744388,176.753207 L426.973876,181.851324 C426.927178,182.084116 426.810435,182.20051 426.623644,182.20051 L418.848481,182.20051 C418.66169,182.20051 418.568295,182.084116 418.568295,181.851324 Z M429.145318,169.280624 L435.869782,169.280624 L432.997876,149.656365 L432.577597,147.072388 L432.297411,149.656365 L429.145318,169.280624 Z M454.502153,182.20051 C454.315361,182.20051 454.221967,182.084116 454.221967,181.851324 L454.221967,142.044108 L445.115921,142.044108 C444.882432,142.044108 444.765689,141.927714 444.765689,141.694922 L444.835735,133.873153 C444.835735,133.686919 444.92913,133.593804 445.115921,133.593804 L471.733594,133.593804 C471.967083,133.593804 472.083826,133.686919 472.083826,133.873153 L472.083826,141.694922 C472.083826,141.927714 471.990432,142.044108 471.80364,142.044108 L462.627548,142.044108 L462.697594,181.851324 C462.697594,182.084116 462.6042,182.20051 462.417408,182.20051 L454.502153,182.20051 Z M485.112476,181.851324 L493.798243,133.873153 C493.844941,133.686919 493.961684,133.593804 494.148476,133.593804 L504.305219,133.593804 C504.492011,133.593804 504.608754,133.686919 504.655452,133.873153 L512.990986,181.851324 C513.037684,182.084116 512.944289,182.20051 512.7108,182.20051 L504.935638,182.20051 C504.748846,182.20051 504.632103,182.084116 504.585405,181.851324 L503.814893,176.753207 L494.288569,176.753207 L493.518057,181.851324 C493.471359,182.084116 493.354616,182.20051 493.167825,182.20051 L485.392662,182.20051 C485.205871,182.20051 485.112476,182.084116 485.112476,181.851324 Z M495.689499,169.280624 L502.413963,169.280624 L499.542057,149.656365 L499.121778,147.072388 L498.841592,149.656365 L495.689499,169.280624 Z M535.475914,182.20051 C535.289123,182.20051 535.195728,182.084116 535.195728,181.851324 L535.195728,142.044108 L526.089682,142.044108 C525.856193,142.044108 525.73945,141.927714 525.73945,141.694922 L525.809496,133.873153 C525.809496,133.686919 525.902891,133.593804 526.089682,133.593804 L552.707355,133.593804 C552.940844,133.593804 553.057587,133.686919 553.057587,133.873153 L553.057587,141.694922 C553.057587,141.927714 552.964193,142.044108 552.777401,142.044108 L543.601309,142.044108 L543.671356,181.851324 C543.671356,182.084116 543.577961,182.20051 543.39117,182.20051 L535.475914,182.20051 Z M556.840099,182.20051 C556.606609,182.20051 556.489866,182.084116 556.489866,181.851324 L556.559913,133.873153 C556.559913,133.686919 556.653307,133.593804 556.840099,133.593804 L564.685307,133.593804 C564.872099,133.593804 564.965493,133.686919 564.965493,133.873153 L565.03554,181.851324 C565.03554,182.084116 564.942146,182.20051 564.755354,182.20051 L556.840099,182.20051 Z M571.479819,182.20051 C571.293027,182.20051 571.199633,182.084116 571.199633,181.851324 L571.339726,133.873153 C571.339726,133.686919 571.43312,133.593804 571.619912,133.593804 L580.165585,133.593804 C580.352377,133.593804 580.515817,133.686919 580.655911,133.873153 L587.030143,143.091666 L593.404375,133.873153 C593.544469,133.686919 593.707909,133.593804 593.894701,133.593804 L602.510421,133.593804 C602.697212,133.593804 602.790607,133.686919 602.790607,133.873153 L602.9307,181.851324 C602.9307,182.084116 602.837305,182.20051 602.650514,182.20051 L594.735259,182.20051 C594.548467,182.20051 594.455073,182.084116 594.455073,181.851324 L594.385026,146.234341 L587.030143,156.849599 L579.745306,146.234341 L579.67526,181.851324 C579.67526,182.084116 579.581865,182.20051 579.395074,182.20051 L571.479819,182.20051 Z M609.094792,182.20051 C608.908001,182.20051 608.814606,182.084116 608.814606,181.851324 L608.884653,133.873153 C608.884653,133.686919 608.978047,133.593804 609.164839,133.593804 L631.649767,133.593804 C631.836559,133.593804 631.929953,133.710198 631.929953,133.94299 L631.929953,141.764759 C631.929953,141.950992 631.836559,142.044108 631.649767,142.044108 L617.290234,142.044108 L617.290234,152.938714 L631.649767,152.938714 C631.836559,152.938714 631.929953,153.03183 631.929953,153.218063 L632,161.109669 C632,161.295903 631.906606,161.389018 631.719814,161.389018 L617.290234,161.389018 L617.290234,173.610532 L631.719814,173.610532 C631.906606,173.610532 632,173.726926 632,173.959718 L632,181.921161 C632,182.107395 631.906606,182.20051 631.719814,182.20051 L609.094792,182.20051 Z" id="TAB-SNooze-is-saving" fill="#555555" opacity="0.699999988"></path>
        <rect id="Rectangle" fill="#EDEDED" fill-rule="nonzero" x="27" y="222" width="606" height="19" rx="9.5"></rect>
        <rect id="Rectangle-Copy" fill="#EDEDED" fill-rule="nonzero" x="27" y="259" width="606" height="19" rx="9.5"></rect>
        <rect id="Rectangle-Copy-2" fill="#EDEDED" fill-rule="nonzero" x="27" y="296" width="452" height="19" rx="9.5"></rect>
        <rect id="Rectangle-Copy-3" fill="#EDEDED" fill-rule="nonzero" x="351" y="341" width="282" height="19" rx="9.5"></rect>
        <rect id="Rectangle-Copy-4" fill="#EDEDED" fill-rule="nonzero" x="351" y="378" width="282" height="19" rx="9.5"></rect>
        <rect id="Rectangle-Copy-5" fill="#EDEDED" fill-rule="nonzero" x="351" y="415" width="282" height="19" rx="9.5"></rect>
        <rect id="Rectangle-Copy-6" fill="#EDEDED" fill-rule="nonzero" x="351" y="452" width="282" height="19" rx="9.5"></rect>
        <rect id="Rectangle-Copy-7" fill="#EDEDED" fill-rule="nonzero" x="351" y="489" width="211" height="19" rx="9.5"></rect>
        <rect id="Rectangle-Copy-9" fill="#EDEDED" fill-rule="nonzero" x="351" y="555" width="282" height="19" rx="9.5"></rect>
        <rect id="Rectangle-Copy-10" fill="#EDEDED" fill-rule="nonzero" x="351" y="592" width="282" height="19" rx="9.5"></rect>
        <rect id="Rectangle-Copy-11" fill="#EDEDED" fill-rule="nonzero" x="351" y="629" width="282" height="19" rx="9.5"></rect>
        <rect id="Rectangle-Copy-12" fill="#EDEDED" fill-rule="nonzero" x="27" y="666" width="606" height="19" rx="9.5"></rect>
        <rect id="Rectangle-Copy-13" fill="#EDEDED" fill-rule="nonzero" x="27" y="703" width="566" height="19" rx="9.5"></rect>
        <rect id="Rectangle-Copy-15" fill="#EDEDED" fill-rule="nonzero" x="27" y="758" width="606" height="19" rx="9.5"></rect>
        <rect id="Rectangle-Copy-16" fill="#EDEDED" fill-rule="nonzero" x="27" y="795" width="606" height="19" rx="9.5"></rect>
        <rect id="Rectangle-Copy-17" fill="#EDEDED" fill-rule="nonzero" x="27" y="832" width="246" height="19" rx="9.5"></rect>
        <g id="Group" opacity="0.800000012" transform="translate(27.000000, 340.000000)">
            <mask id="mask-2" fill="white">
                <use xlink:href="#path-1"></use>
            </mask>
            <use id="Rectangle" fill="#D8D8D8" fill-rule="nonzero" xlink:href="#path-1"></use>
            <g id="Logo-Text" mask="url(#mask-2)">
                <g transform="translate(-69.000000, -81.000000)" id="small-tile">
                    <g>
                        <g id="Group-2" fill-rule="nonzero">
                            <g id="Logo">
                                <g id="Group" transform="translate(228.388259, 227.888259) rotate(-360.000000) translate(-228.388259, -227.888259) translate(0.888259, 0.388259)">
                                    <g id="Group-5-Copy-5" transform="translate(0.111741, 0.611741)" fill="#C0C0C0">
                                        <ellipse id="Oval" cx="226.836803" cy="226.904327" rx="226.836803" ry="226.904327"></ellipse>
                                    </g>
                                    <path d="M201.253475,117.611741 C186.445364,136.841043 177.698792,160.57838 177.698792,186.263586 C177.698792,250.391678 232.220364,302.377767 299.476132,302.377767 C309.339126,302.377767 318.928259,301.259757 328.111741,299.149399 C305.948534,327.929777 270.206917,346.611741 229.88908,346.611741 C162.633313,346.611741 108.111741,294.625651 108.111741,230.49756 C108.111741,175.773792 147.814778,129.891925 201.253471,117.611747 Z" id="Combined-Shape-Copy-3" fill="#FFFFFF"></path>
                                </g>
                            </g>
                        </g>
                    </g>
                </g>
            </g>
        </g>
        <path d="M315.717842,900.282829 C317.319475,897.794041 320.378912,896.376249 323.26971,895.321069 C323.707141,895.421304 324.286695,895.123786 324.547718,895.066619 C325.92635,894.987619 326.976678,894.776449 327.3361,895.957192 C327.270556,896.610766 327.386716,896.609686 327.219917,896.974989 C326.312405,898.962513 324.77541,898.7766 323.73444,903.33622 L323.73444,904.099568 L323.618257,904.099568 L323.618257,907.152959 L323.73444,907.152959 C324.053141,912.13818 327.781267,915.927173 331.86722,916.82203 L332.564315,916.82203 L332.564315,916.949255 L335.352697,916.949255 L335.352697,916.82203 C336.667815,916.853552 337.538847,916.15128 338.489627,915.804233 C339.283752,915.773735 339.750536,916.148458 340,916.694805 C339.80003,921.660653 332.967931,925.970143 328.846473,926.872775 L327.80083,926.872775 L327.80083,927 L325.709544,927 L325.709544,926.872775 L324.547718,926.872775 L324.547718,926.745551 C318.121377,926.218374 313.395065,920.389107 312.232365,914.023088 L312.232365,913.259741 L312.116183,913.259741 L312.116183,911.987494 L312,911.987494 L312,909.9519 L312.116183,909.9519 L312.116183,908.679654 L312.232365,908.679654 C312.392991,905.848257 313.515606,903.960883 314.439834,901.936749 C314.709715,901.345687 315.444547,900.881369 315.717842,900.282829 L315.717842,900.282829 Z" id="Shape-20" fill="#EDEDED"></path>
    </g>
</svg>