<?xml version="1.0" encoding="UTF-8"?>
<svg width="23px" height="23px" viewBox="0 0 23 23" version="1.1" xmlns="http://www.w3.org/2000/svg" xmlns:xlink="http://www.w3.org/1999/xlink">
    <!-- Generator: Sketch 52.5 (67469) - http://www.bohemiancoding.com/sketch -->
    <title>twitter</title>
    <desc>Created with Sketch.</desc>
    <g id="twitter" stroke="none" stroke-width="1" fill="none" fill-rule="evenodd">
        <path d="M7.22174354,21 C8.89690826,21 10.4659909,20.7344315 11.9581348,20.2021091 C13.4234668,19.6425184 14.678966,18.9240609 15.7257983,18.0194684 C16.7458186,17.1148758 17.6620882,16.0774991 18.4209833,14.9061525 C19.1530664,13.7087233 19.7289407,12.484026 20.0949823,11.2071634 C20.4621896,9.93030076 20.6452103,8.65225259 20.6452103,7.3481218 L20.6452103,6.73636591 C21.5603142,6.04517659 22.3460213,5.22001747 23,4.26207413 C22.0837304,4.63434419 21.1942727,4.89991264 20.278003,4.98053164 C21.2991891,4.36759017 22.005626,3.49026582 22.3460213,2.34618745 C21.4297516,2.90459254 20.4353776,3.30413079 19.3628991,3.51634843 C18.4209833,2.50505429 17.2692347,2 15.9088191,2 C14.6265079,2 13.5015712,2.45170348 12.5853016,3.38356421 C11.6701977,4.34150755 11.1992397,5.45950331 11.1992397,6.78971671 C11.1992397,7.13590416 11.2516979,7.50817422 11.3298023,7.88044428 C9.39351242,7.80101086 7.5877851,7.294771 5.88697415,6.41744665 C4.21297516,5.51285411 2.77328941,4.34150755 1.59589458,2.87850992 C1.17739483,3.62305004 0.941915864,4.42094097 0.941915864,5.29945089 C0.941915864,6.09734182 1.15174861,6.86915013 1.51779017,7.58760764 C1.91064369,8.27998253 2.40724785,8.83838762 3.06122656,9.29127668 C2.30233147,9.26400849 1.59589458,9.05179084 0.91626964,8.67952078 L0.91626964,8.73287158 C0.91626964,9.90303257 1.2823112,10.9143267 1.9887481,11.7928366 C2.72083122,12.6713466 3.6102889,13.2024835 4.70957932,13.4419693 C4.29107957,13.5486709 3.87257983,13.6020217 3.45408008,13.6020217 C3.19178915,13.6020217 2.903852,13.5759391 2.5646224,13.5225883 C2.87820578,14.4805316 3.42726812,15.2784226 4.23862139,15.891364 C5.04997466,16.5292025 5.9662443,16.8481218 6.98626457,16.8481218 C5.2598074,18.2328716 3.32351749,18.8979783 1.12493664,18.8979783 C0.706436898,18.8979783 0.340395337,18.8979783 0,18.8446275 C2.17176888,20.2815425 4.60466295,21 7.22174354,21" id="Fill-178" fill="#FFFFFF"></path>
    </g>
</svg>