<?xml version="1.0" encoding="UTF-8"?>
<svg width="50px" height="50px" viewBox="0 0 50 50" version="1.1" xmlns="http://www.w3.org/2000/svg" xmlns:xlink="http://www.w3.org/1999/xlink">
    <!-- Generator: Sketch 52.5 (67469) - http://www.bohemiancoding.com/sketch -->
    <title>breifcase_white</title>
    <desc>Created with Sketch.</desc>
    <g id="breifcase_white" stroke="none" stroke-width="1" fill="none" fill-rule="evenodd">
        <g id="office-bag-b" transform="translate(0.000000, 2.000000)" fill="#FFFFFF" fill-rule="nonzero">
            <path d="M47,8 L36,8 L36,5 C35.9968038,2.23990123 33.7600988,0.00319615648 31,0 L19,0 C16.2399012,0.00319615648 14.0031962,2.23990123 14,5 L14,8 L3,8 C1.34387685,8.00176371 0.00176371092,9.34387685 0,11 L0,43 C0.00176371092,44.6561231 1.34387685,45.9982363 3,46 L47,46 C48.6561231,45.9982363 49.9982363,44.6561231 50,43 L50,11 C49.9982363,9.34387685 48.6561231,8.00176371 47,8 Z M16,5 C16.0017637,3.34387685 17.3438769,2.00176371 19,2 L31,2 C32.6561231,2.00176371 33.9982363,3.34387685 34,5 L34,8 L16,8 L16,5 Z M48,43 C48,43.5522847 47.5522847,44 47,44 L3,44 C2.44771525,44 2,43.5522847 2,43 L2,21.1382 C7.69278948,24.2498939 13.7351445,26.6741539 20,28.36 L20,32 C20,33.1045695 20.8954305,34 22,34 L28,34 C29.1045695,34 30,33.1045695 30,32 L30,28.36 C36.2648732,26.6740267 42.3072289,24.2496322 48,21.1378 L48,43 Z M22,28.7412 C22.9919773,28.9035223 23.994879,28.9900393 25,29 C26.005121,28.9900393 27.0080227,28.9035223 28,28.7412 L28,32 L22,32 L22,28.7412 Z M48,18.8564 L47.5156,19.125 C47.373,19.205 33.2246,27 25,27 C16.7754,27 2.627,19.205 2.4844,19.125 L2,18.8564 L2,11 C2,10.4477153 2.44771525,10 3,10 L47,10 C47.5522847,10 48,10.4477153 48,11 L48,18.8564 Z" id="Shape"></path>
        </g>
    </g>
</svg>