<?xml version="1.0" encoding="UTF-8"?>
<svg width="50px" height="50px" viewBox="0 0 50 50" version="1.1" xmlns="http://www.w3.org/2000/svg" xmlns:xlink="http://www.w3.org/1999/xlink">
    <!-- Generator: Sketch 52.5 (67469) - http://www.bohemiancoding.com/sketch -->
    <title>calendar_white</title>
    <desc>Created with Sketch.</desc>
    <g id="calendar_white" stroke="none" stroke-width="1" fill="none" fill-rule="evenodd">
        <g id="calendar" transform="translate(0.000000, 1.000000)" fill="#FFFFFF" fill-rule="nonzero">
            <path d="M48,4 L38,4 L38,1 C38,0.44771525 37.5522847,3.38176876e-17 37,0 C36.4477153,-3.38176876e-17 36,0.44771525 36,1 L36,4 L14,4 L14,1 C14,0.44771525 13.5522847,3.38176876e-17 13,0 C12.4477153,-3.38176876e-17 12,0.44771525 12,1 L12,4 L2,4 C0.8954305,4 1.3527075e-16,4.8954305 0,6 L0,46 C1.3527075e-16,47.1045695 0.8954305,48 2,48 L48,48 C49.1045695,48 50,47.1045695 50,46 L50,6 C50,4.8954305 49.1045695,4 48,4 Z M48,46 L2,46 L2,16 L48,16 L48,46 Z M2,14 L2,6 L48,6 L48,14 L2,14 Z" id="Shape"></path>
        </g>
    </g>
</svg>