<?xml version="1.0" encoding="UTF-8"?>
<svg width="20px" height="20px" viewBox="0 0 20 20" version="1.1" xmlns="http://www.w3.org/2000/svg" xmlns:xlink="http://www.w3.org/1999/xlink">
    <!-- Generator: Sketch 52.5 (67469) - http://www.bohemiancoding.com/sketch -->
    <title>cog</title>
    <desc>Created with Sketch.</desc>
    <g id="cog" stroke="none" stroke-width="1" fill="none" fill-rule="evenodd">
        <path d="M20,10.78904 L20,9.21088 C19.9999996,8.85393627 19.7635304,8.540178 19.4204,8.44184 L17.776,7.97072 C17.6481009,7.93327501 17.548085,7.83325915 17.51064,7.70536 C17.3641716,7.22223522 17.1712717,6.75442617 16.93464,6.30848 C16.8713151,6.19193059 16.8717071,6.05115498 16.93568,5.93496 L17.76136,4.448 C17.9345894,4.13580899 17.8799795,3.7466196 17.62752,3.49416 L16.506,2.3724 C16.2535139,2.11986298 15.8642298,2.06524896 15.552,2.23856 L14.06448,3.064 C13.9481336,3.1280489 13.8071522,3.12832036 13.69056,3.06472 C13.2448174,2.82801039 12.7771598,2.63510668 12.29416,2.48872 C12.1664107,2.45111654 12.0665722,2.35109717 12.0292,2.22328 L11.55816,0.5796 C11.459822,0.236469613 11.1460637,3.82452813e-07 10.78912,0 L9.21088,0 C8.85393627,3.82452813e-07 8.540178,0.236469613 8.44184,0.5796 L7.97072,2.22344 C7.93324238,2.3513535 7.83325089,2.45140529 7.70536,2.48896 C7.22245659,2.63532906 6.75490355,2.82823387 6.30928,3.06496 C6.19265898,3.12847564 6.05170817,3.12817408 5.93536,3.06416 L4.448,2.23856 C4.13580899,2.06533058 3.7466196,2.11994048 3.49416,2.3724 L2.37248,3.494 C2.11994298,3.74648613 2.06532896,4.13577016 2.23864,4.448 L3.064,5.9356 C3.12805247,6.05200959 3.12829378,6.19305192 3.06464,6.30968 C2.8278345,6.75523838 2.63492634,7.22277275 2.48864,7.70568 C2.451065,7.83352516 2.35101038,7.93345919 2.22312,7.97088 L0.57944,8.44192 C0.236401542,8.54030889 1.56062811e-05,8.85401062 0,9.21088 L0,10.78904 C3.82452813e-07,11.1459837 0.236469613,11.459742 0.5796,11.55808 L2.22368,12.0292 C2.35162142,12.06665 2.45166999,12.1666986 2.48912,12.29464 C2.63557114,12.7777196 2.82847192,13.2454772 3.06512,13.69136 C3.12840509,13.8079268 3.127983,13.9486948 3.064,14.06488 L2.23864,15.552 C2.06545138,15.8641716 2.12005922,16.2533137 2.37248,16.50576 L3.49392,17.62728 C3.7463796,17.8797395 4.13556899,17.9343494 4.44776,17.76112 L5.93536,16.936 C6.05170817,16.8719859 6.19265898,16.8716844 6.30928,16.9352 C6.75487325,17.1719314 7.22240027,17.3648365 7.70528,17.5112 C7.83315149,17.5487395 7.93313902,17.6487572 7.97064,17.77664 L8.44184,19.42064 C8.54026659,19.7636752 8.85400331,20.0000303 9.21088,20 L10.78904,20 C11.1459837,19.9999996 11.459742,19.7635304 11.55808,19.4204 L12.02912,17.77672 C12.066551,17.6488525 12.1664864,17.5488266 12.29432,17.51128 C12.7773442,17.3648896 13.2450279,17.1719862 13.6908,16.93528 C13.8074134,16.8717345 13.9483795,16.8720361 14.06472,16.93608 L15.552,17.76136 C15.864191,17.9345894 16.2533804,17.8799795 16.50584,17.62752 L17.62736,16.506 C17.8797808,16.2535537 17.9343886,15.8644116 17.7612,15.55224 L16.936,14.06464 C16.8719853,13.9483204 16.8716837,13.8073925 16.9352,13.6908 C17.1718838,13.2450175 17.3647864,12.7773359 17.5112,12.29432 C17.5487598,12.1664942 17.6487803,12.0665642 17.77664,12.02912 L19.42032,11.55808 C19.7634821,11.4597715 19.9999894,11.1460061 20,10.78904 Z M10,13.6 C8.0117749,13.6 6.4,11.9882251 6.4,10 C6.4,8.0117749 8.0117749,6.4 10,6.4 C11.9882251,6.4 13.6,8.0117749 13.6,10 C13.6,10.9547794 13.2207154,11.8704534 12.5455844,12.5455844 C11.8704534,13.2207154 10.9547794,13.6 10,13.6 Z" id="Shape" fill="#929292" fill-rule="nonzero"></path>
    </g>
</svg>