<?xml version="1.0" encoding="UTF-8"?>
<svg width="50px" height="50px" viewBox="0 0 50 50" version="1.1" xmlns="http://www.w3.org/2000/svg" xmlns:xlink="http://www.w3.org/1999/xlink">
    <!-- Generator: Sketch 52.6 (67491) - http://www.bohemiancoding.com/sketch -->
    <title>moon_white</title>
    <desc>Created with Sketch.</desc>
    <g id="moon_white" stroke="none" stroke-width="1" fill="none" fill-rule="evenodd">
        <g id="night" transform="translate(3.000000, 3.000000)" fill="#FFFFFF" fill-rule="nonzero">
            <path d="M17,8 C17.0020521,5.38332668 17.5777678,2.79892122 18.6866,0.4288 C7.44350923,2.66378426 -0.198446225,13.1583546 1.12585199,24.5446832 C2.4501502,35.9310118 12.2967,44.3915642 23.7526234,43.9865172 C35.2085468,43.5814701 44.4329762,34.4466251 44.9498,22.9952 C39.4255766,26.6642968 32.3309936,26.9974839 26.4872154,23.8622692 C20.6434372,20.7270545 16.9978026,14.6316899 17,8 Z M23,42 C13.4206625,42.0008549 5.18585045,35.2092154 3.36346705,25.8048214 C1.54108366,16.4004274 6.64292745,7.0244109 15.5292,3.447 C15.1764696,4.93894531 14.9988709,6.46692522 15,8 C15.0007245,14.640981 18.2975259,20.8485714 23.7991643,24.5680612 C29.3008027,28.287551 36.2897997,29.0338749 42.4528,26.56 C40.3564712,35.6094676 32.2890957,42.0126732 23,42 Z" id="Shape"></path>
        </g>
    </g>
</svg>