<?xml version="1.0" encoding="UTF-8"?>
<svg width="50px" height="50px" viewBox="0 0 50 50" version="1.1" xmlns="http://www.w3.org/2000/svg" xmlns:xlink="http://www.w3.org/1999/xlink">
    <!-- Generator: Sketch 52.6 (67491) - http://www.bohemiancoding.com/sketch -->
    <title>refresh_white</title>
    <desc>Created with Sketch.</desc>
    <g id="refresh_white" stroke="none" stroke-width="1" fill="none" fill-rule="evenodd">
        <g id="reload-ui" transform="translate(0.000000, -1.000000)" fill="#FFFFFF">
            <path d="M50,26 C50.0037714,14.1152269 41.6374641,3.87166636 29.9913703,1.50178333 C18.3452766,-0.8680997 6.64110639,5.29128594 2,16.2324 L2,4 C2,3.44771525 1.55228475,3 1,3 C0.44771525,3 6.76353751e-17,3.44771525 0,4 L0,18 C3.24796525e-17,18.2652165 0.10535684,18.5195704 0.292893219,18.7071068 C0.480429597,18.8946432 0.73478351,19 1,19 L15,19 C15.5522847,19 16,18.5522847 16,18 C16,17.4477153 15.5522847,17 15,17 L3.857,17 C8.13003818,6.93990607 18.8961759,1.28001767 29.6058263,3.46353156 C40.3154767,5.64704546 48.0064761,15.0700273 48,26 L48,28 C48,28.5522847 48.4477153,29 49,29 C49.5522847,29 50,28.5522847 50,28 L50,26.003 L50,26.001 L50,26 Z" id="Path"></path>
            <path d="M49,33 L35,33 C34.4477153,33 34,33.4477153 34,34 C34,34.5522847 34.4477153,35 35,35 L46.143,35 C41.8699618,45.0600939 31.1038241,50.7199823 20.3941737,48.5364684 C9.68452325,46.3529545 1.99352388,36.9299727 2,26 L2,24 C2,23.4477153 1.55228475,23 1,23 C0.44771525,23 -7.05044888e-14,23.4477153 -7.05721242e-14,24 L-7.05721242e-14,25.997 L-7.23484811e-14,26 C-0.00377142663,37.8847731 8.36253591,48.1283336 20.0086297,50.4982167 C31.6547234,52.8680997 43.3588936,46.7087141 48,35.7676 L48,48 C48,48.5522847 48.4477153,49 49,49 C49.5522847,49 50,48.5522847 50,48 L50,34 C50,33.4477153 49.5522847,33 49,33 Z" id="Path"></path>
        </g>
    </g>
</svg>