<?xml version="1.0" encoding="UTF-8"?>
<svg width="50px" height="50px" viewBox="0 0 50 50" version="1.1" xmlns="http://www.w3.org/2000/svg" xmlns:xlink="http://www.w3.org/1999/xlink">
    <!-- Generator: Sketch 52.5 (67469) - http://www.bohemiancoding.com/sketch -->
    <title>soffa</title>
    <desc>Created with Sketch.</desc>
    <g id="soffa" stroke="none" stroke-width="1" fill="none" fill-rule="evenodd">
        <g id="vintage-sofa" transform="translate(0.000000, 8.000000)">
            <rect id="Rectangle" fill="#EEEEEE" x="4" y="26" width="36" height="2"></rect>
            <path d="M43,2 L42,2 L42,8.1066 C39.9023581,8.54237224 38.3167984,10.2682177 38.06,12.3952 C38.0196459,12.5942593 37.9995435,12.796892 38,13 L38,18 L10,18 L10,20 L40,20 L40,15 C39.9995435,14.796892 40.0196459,14.5942593 40.06,14.3952 C40.3167984,12.2682177 41.9023581,10.5423722 44,10.1066 L44,3 C44,2.44771525 43.5522847,2 43,2 Z" id="Path" fill="#EEEEEE"></path>
            <path d="M45.86,12.14 C46.2476521,13.3372467 45.8169308,14.6477651 44.7946,15.3816 L44.0006,15.9816 L44.0006,26 L42,26 L42,28 L46,28 L46,17.9822 L46.794,17.3822 C47.7029125,16.7114526 48.1527085,15.5832162 47.9545665,14.4711173 C47.7564244,13.3590185 46.9446418,12.4555569 45.86,12.14 Z" id="Path" fill="#EEEEEE"></path>
            <circle id="Oval" fill="#596365" cx="35" cy="11" r="1"></circle>
            <circle id="Oval" fill="#596365" cx="15" cy="11" r="1"></circle>
            <path d="M46,10.1 L46,3 C46,1.34314575 44.6568542,-8.8817842e-16 43,-8.8817842e-16 L27,-8.8817842e-16 C26.2597369,0.00195238484 25.5467332,0.279524747 25,0.7786 C24.4532668,0.279524747 23.7402631,0.00195238484 23,8.8817842e-16 L7,8.8817842e-16 C6.20435053,-8.8817842e-16 5.44128879,0.316070521 4.87867966,0.878679656 C4.31607052,1.44128879 4,2.20435053 4,3 L4,10.1 C2.07303062,10.4878281 0.554098938,11.9722113 0.122045868,13.8897492 C-0.310007203,15.8072872 0.425556943,17.7996457 2,18.9764 L2,29 C2,29.5522847 2.44771525,30 3,30 L47,30 C47.5522847,30 48,29.5522847 48,29 L48,18.9776 C49.5752329,17.8010335 50.3113631,15.8082027 49.8792513,13.8901447 C49.4471395,11.9720866 47.9275799,10.4874314 46,10.1 Z M8.00000112,28 L4,28 L4,17.982 L3.2058,17.382 C2.4497576,16.8233927 2.00258205,15.9400189 2,15 C1.99331076,13.415882 3.2243801,12.1020095 4.80558253,12.0057106 C6.38678496,11.9094118 7.76820004,13.0641781 7.9538,14.6374 L7.9636,14.7174 L7.9798,14.7974 C7.99333375,14.8640815 8.00010139,14.931959 8,15 L8.00000112,28 Z M6,10.1066 L6,3 C6,2.44771525 6.44771525,2 7,2 L23,2 C23.5522847,2 24,2.44771525 24,3 L24,20 L10,20 L10,15 C10.0004565,14.796892 9.9803541,14.5942593 9.94,14.3952 C9.68314274,12.2682448 8.09760993,10.5424286 6,10.1066 Z M40,28 L10,28 L10,22 L40,22 L40,28 Z M40.06,14.3952 C40.0196459,14.5942593 39.9995435,14.796892 40,15 L40,20 L26,20 L26,3 C26,2.44771525 26.4477153,2 27,2 L43,2 C43.5522847,2 44,2.44771525 44,3 L44,10.1066 C41.9023581,10.5423722 40.3167984,12.2682177 40.06,14.3952 Z M46.794,17.382 L46,17.982 L46,28 L41.9999953,28 L42,15 C41.9997923,14.9317653 42.0064932,14.8636849 42.02,14.7968 L42.0362,14.7168 L42.046,14.6368 C42.2045435,13.2830511 43.2593896,12.2083209 44.609942,12.0245271 C45.9604944,11.8407333 47.2641763,12.5944965 47.778712,13.8566475 C48.2932477,15.1187984 47.8881216,16.569184 46.794,17.382 Z" id="Shape" fill="#596365" fill-rule="nonzero"></path>
            <path d="M47,32 L43,32 C42.4477153,32 42,32.4477153 42,33 C42,33.5522847 42.4477153,34 43,34 L47,34 C47.5522847,34 48,33.5522847 48,33 C48,32.4477153 47.5522847,32 47,32 Z" id="Path" fill="#596365"></path>
            <path d="M7,32 L3,32 C2.44771525,32 2,32.4477153 2,33 C2,33.5522847 2.44771525,34 3,34 L7,34 C7.55228475,34 8,33.5522847 8,33 C8,32.4477153 7.55228475,32 7,32 Z" id="Path" fill="#596365"></path>
        </g>
    </g>
</svg>