<?xml version="1.0" encoding="UTF-8"?>
<svg width="50px" height="50px" viewBox="0 0 50 50" version="1.1" xmlns="http://www.w3.org/2000/svg" xmlns:xlink="http://www.w3.org/1999/xlink">
    <!-- Generator: Sketch 52.6 (67491) - http://www.bohemiancoding.com/sketch -->
    <title>sun_white</title>
    <desc>Created with Sketch.</desc>
    <g id="sun_white" stroke="none" stroke-width="1" fill="none" fill-rule="evenodd">
        <g id="sun" transform="translate(4.000000, 0.000000)" fill="#FFFFFF" fill-rule="nonzero">
            <path d="M37.7302,27.9296 C38.0896519,25.9928032 38.0896519,24.0063968 37.7302,22.0696 L41.735,14.9914 C42.0856496,14.373637 42.0828426,13.6163582 41.727623,13.0012117 C41.3724033,12.3860652 40.717924,12.005098 40.0076,12 L31.943,12 C30.8999787,11.1258763 29.7558736,10.3800157 28.5352,9.7784 L22.68,0.896 C22.3038356,0.335930748 21.6734682,-4.03124447e-05 20.9988,-4.03124447e-05 C20.3241318,-4.03124447e-05 19.6937644,0.335930748 19.3176,0.896 L13.464,9.7784 C12.2432948,10.3798517 11.099237,11.1257253 10.0564,12 L1.992,12 C1.28144634,12.0049894 0.626722329,12.3860598 0.27142864,13.0014278 C-0.0838650496,13.6167958 -0.0865396375,14.3743386 0.2644,14.9922 L4.2692,22.0704 C3.90974812,24.0071968 3.90974812,25.9936032 4.2692,27.9304 L0.2644,35.0078 C-0.0865396375,35.6256614 -0.0838650496,36.3832042 0.27142864,36.9985722 C0.626722329,37.6139402 1.28144634,37.9950106 1.992,38 L10.0564,38 C11.099237,38.8742747 12.2432948,39.6201483 13.464,40.2216 L19.3184,49.1034 C19.6943821,49.6637321 20.3248152,49.9999168 20.9996,49.9999168 C21.6743848,49.9999168 22.3048179,49.6637321 22.6808,49.1034 L28.5352,40.2216 C29.755975,39.6201622 30.9001006,38.8742882 31.943,38 L40.0074,38 C40.7179537,37.9950106 41.3726777,37.6139402 41.7279714,36.9985722 C42.083265,36.3832042 42.0859396,35.6256614 41.735,35.0078 L37.7302,27.9296 Z M39.9946,14 L39.9946,14.0074 L37,19.3 C36.3122299,17.3630754 35.2782354,15.5672403 33.9484,14 L39.9946,14 Z M20.98,2.003 L21,2 L21.0112,1.997 L25.3528,8.5834 C22.5023767,7.80507355 19.4954233,7.80507355 16.645,8.5834 L20.98,2.003 Z M1.992,14 L8.052,14 C6.7210088,15.568373 5.6862497,17.3656647 4.9982,19.3042 L1.992,14 Z M2.005,35.9926 L5,30.7 C5.68694051,32.6354508 6.71970099,34.4300415 8.048,35.9964 L2.005,35.9926 Z M20.9886,48.0028 L16.647,41.4164 C19.4929943,42.1935396 22.4951771,42.1943683 25.3416,41.4188 L20.9886,48.0028 Z M21,40 C12.7157288,40 6,33.2842712 6,25 C6,16.7157288 12.7157288,10 21,10 C29.2842712,10 36,16.7157288 36,25 C35.9906315,33.2803876 29.2803876,39.9906315 21,40 Z M33.9488,36 C35.2794354,34.4315486 36.3138528,32.6342618 37.0016,30.6958 L40.0076,36 L33.9488,36 Z" id="Shape"></path>
        </g>
    </g>
</svg>