<?xml version="1.0" encoding="UTF-8"?>
<svg width="50px" height="50px" viewBox="0 0 50 50" version="1.1" xmlns="http://www.w3.org/2000/svg" xmlns:xlink="http://www.w3.org/1999/xlink">
    <!-- Generator: Sketch 52.6 (67491) - http://www.bohemiancoding.com/sketch -->
    <title>coffee_white</title>
    <desc>Created with Sketch.</desc>
    <g id="coffee_white" stroke="none" stroke-width="1" fill="none" fill-rule="evenodd">
        <g id="coffee-cup" transform="translate(7.000000, 2.000000)" fill="#FFFFFF" fill-rule="nonzero">
            <path d="M18,32 C22.418278,32 26,28.418278 26,24 C26,19.581722 22.418278,16 18,16 C13.581722,16 10,19.581722 10,24 C10,28.418278 13.581722,32 18,32 Z M18,18 C21.3137085,18 24,20.6862915 24,24 C24,27.3137085 21.3137085,30 18,30 C14.6862915,30 12,27.3137085 12,24 C12.0036374,20.6877993 14.6877993,18.0036374 18,18 Z" id="Shape"></path>
            <path d="M35.9376,5.5158 L34.9054,1.5158 C34.6606117,0.613498773 33.8372674,-0.009579233 32.9024,5.982282e-14 L3.0978,5.982282e-14 C2.16321764,-0.00969957383 1.33996787,0.612895912 1.0948,1.5148 L0.0626,5.5148 C-0.0831152441,6.12239529 0.0611918771,6.76321409 0.453285055,7.24969935 C0.845378233,7.7361846 1.44091811,8.01332274 2.0656,8 L3.052,8 L4.9016,43.16 C4.98606366,44.7527882 6.30257407,46.0007486 7.8976,46 L28.1026,46 C29.6982858,46.0006985 31.0150592,44.7516975 31.0986,43.1582 L32.9484,8 L33.9348,8 C34.5592249,8.0131803 35.1544842,7.73614689 35.5464861,7.24992199 C35.9384881,6.7636971 36.0829418,6.12321741 35.9376,5.5158 Z M28.1026,44 L7.8976,44 C7.36578519,44.0003854 6.92697347,43.58391 6.8996,43.0528 L6.8438,42 L29.1564,42 L29.1008,43.0528 C29.0734226,43.5839873 28.6344921,44.000492 28.1026,44 Z M29.2612,40 L6.739,40 L5.0538,8 L30.9464,8 L29.2612,40 Z M33.0536,6 L2.9464,6 L2.9464,6.0142 L2,6.0156 L3.0978,2 L32.9024,2 L32.9688,2.0146 L33.9348,6 L33.0536,6 Z" id="Shape"></path>
        </g>
    </g>
</svg>