<?xml version="1.0" encoding="UTF-8"?>
<svg width="50px" height="50px" viewBox="0 0 50 50" version="1.1" xmlns="http://www.w3.org/2000/svg" xmlns:xlink="http://www.w3.org/1999/xlink">
    <!-- Generator: Sketch 52.6 (67491) - http://www.bohemiancoding.com/sketch -->
    <title>mailbox_white</title>
    <desc>Created with Sketch.</desc>
    <g id="mailbox_white" stroke="none" stroke-width="1" fill="none" fill-rule="evenodd">
        <g id="mailbox" transform="translate(2.000000, 1.000000)" fill="#FFFFFF">
            <path d="M40,6.004 L32,6.004 L32,8.004 L40,8.004 C42.2080881,8.00653493 43.9974651,9.79591186 44,12.004 L44,29.004 C43.9993388,29.5560106 43.5520106,30.0033388 43,30.004 L20,30.004 L20,16.004 C19.9942726,12.8450742 18.4896448,9.87634174 15.9454,8.004 L28,8.004 L28,15.004 C28,15.5562847 28.4477153,16.004 29,16.004 C29.5522847,16.004 30,15.5562847 30,15.004 L30,3.004 C30.0007711,2.45203498 30.448035,2.00477113 31,2.004 L35,2.004 C35.5522847,2.004 36,1.55628475 36,1.004 C36,0.45171525 35.5522847,0.004 35,0.004 L31,0.004 C29.3438769,0.00576371092 28.0017637,1.34787685 28,3.004 L28,6.004 L10,6.004 C4.4771525,6.004 6.76353751e-16,10.4811525 0,16.004 L0,29.004 C3.1460705e-15,30.6608542 1.34314575,32.004 3,32.004 L24,32.004 L24,46.004 L23,46.004 C22.4477153,46.004 22,46.4517153 22,47.004 C22,47.5562847 22.4477153,48.004 23,48.004 L33,48.004 C33.5522847,48.004 34,47.5562847 34,47.004 C34,46.4517153 33.5522847,46.004 33,46.004 L32,46.004 L32,32.004 L43,32.004 C44.6568542,32.004 46,30.6608542 46,29.004 L46,12.004 C46,8.6902915 43.3137085,6.004 40,6.004 Z M3,30.004 C2.44798937,30.0033388 2.00066122,29.5560106 2,29.004 L2,16.004 C2,11.585722 5.581722,8.004 10,8.004 C14.418278,8.004 18,11.585722 18,16.004 L18,30.004 L3,30.004 Z M30,46.004 L26,46.004 L26,32.004 L30,32.004 L30,46.004 Z" id="Shape" fill-rule="nonzero"></path>
            <path d="M15,24.004 L5,24.004 C4.44771525,24.004 4,24.4517153 4,25.004 C4,25.5562847 4.44771525,26.004 5,26.004 L15,26.004 C15.5522847,26.004 16,25.5562847 16,25.004 C16,24.4517153 15.5522847,24.004 15,24.004 Z" id="Path"></path>
        </g>
    </g>
</svg>