<?xml version="1.0" encoding="UTF-8"?>
<svg width="407px" height="80px" viewBox="0 0 407 80" version="1.1" xmlns="http://www.w3.org/2000/svg" xmlns:xlink="http://www.w3.org/1999/xlink">
    <!-- Generator: Sketch 52.5 (67469) - http://www.bohemiancoding.com/sketch -->
    <title>navbar_logo</title>
    <desc>Created with Sketch.</desc>
    <g id="navbar_logo" stroke="none" stroke-width="1" fill="none" fill-rule="evenodd">
        <g id="Group" fill="#FFFFFF">
            <g id="Logo_white" fill-rule="nonzero">
                <g id="Group">
                    <g id="Group-5-Copy-5">
                        <path d="M40,80 C17.90861,80 1.42108547e-13,62.09139 1.42108547e-13,40 C1.42108547e-13,17.90861 17.90861,2.84217094e-14 40,2.84217094e-14 C62.09139,2.84217094e-14 80,17.90861 80,40 C80,62.09139 62.09139,80 40,80 Z M34.022981,14.7368421 C21.7499797,17.5592227 12.6315789,28.1043545 12.6315789,40.68164 C12.6315789,55.4203422 25.1532797,67.3684211 40.5995803,67.3684211 C49.8591792,67.3684211 58.0677803,63.0747036 63.1578947,56.4600452 C61.0487696,56.9450736 58.8464807,57.2020283 56.5812954,57.2020283 C41.1349948,57.2020283 28.613294,45.2539494 28.613294,30.5152473 C28.613294,24.6119597 30.6220756,19.1563552 34.022981,14.7368421 Z" id="Combined-Shape"></path>
                    </g>
                </g>
            </g>
            <path d="M130.8125,23.765625 L118.398438,23.765625 L118.398438,58 L111.535156,58 L111.535156,23.765625 L99.2304688,23.765625 L99.2304688,18.1875 L130.8125,18.1875 L130.8125,23.765625 Z M148.476562,58 C148.184894,57.434893 147.929689,56.5143293 147.710938,55.2382812 C145.596344,57.4440214 143.007828,58.546875 139.945312,58.546875 C136.973943,58.546875 134.549489,57.6992272 132.671875,56.0039062 C130.794261,54.3085853 129.855469,52.2122521 129.855469,49.7148438 C129.855469,46.5611821 131.026681,44.1412845 133.369141,42.4550781 C135.7116,40.7688718 139.061176,39.9257812 143.417969,39.9257812 L147.492188,39.9257812 L147.492188,37.984375 C147.492188,36.4531173 147.063806,35.2272181 146.207031,34.3066406 C145.350256,33.3860631 144.046884,32.9257812 142.296875,32.9257812 C140.783847,32.9257812 139.544276,33.3040327 138.578125,34.0605469 C137.611974,34.8170611 137.128906,35.77864 137.128906,36.9453125 L130.484375,36.9453125 C130.484375,35.3229086 131.02213,33.8053456 132.097656,32.3925781 C133.173182,30.9798106 134.636058,29.8723998 136.486328,29.0703125 C138.336598,28.2682252 140.40103,27.8671875 142.679688,27.8671875 C146.143246,27.8671875 148.904938,28.7376215 150.964844,30.4785156 C153.02475,32.2194097 154.082031,34.6666509 154.136719,37.8203125 L154.136719,51.1640625 C154.136719,53.8255341 154.510413,55.9492108 155.257812,57.5351562 L155.257812,58 L148.476562,58 Z M141.175781,53.2148438 C142.488288,53.2148438 143.723302,52.8958365 144.880859,52.2578125 C146.038417,51.6197885 146.908851,50.7630262 147.492188,49.6875 L147.492188,44.109375 L143.910156,44.109375 C141.449206,44.109375 139.598965,44.5377561 138.359375,45.3945312 C137.119785,46.2513064 136.5,47.4635338 136.5,49.03125 C136.5,50.307298 136.923824,51.3235639 137.771484,52.0800781 C138.619145,52.8365923 139.753899,53.2148438 141.175781,53.2148438 Z M187.058594,43.5078125 C187.058594,48.1015855 186.033213,51.7564968 183.982422,54.4726562 C181.93163,57.1888157 179.110695,58.546875 175.519531,58.546875 C172.055972,58.546875 169.358083,57.2981896 167.425781,54.8007812 L167.097656,58 L161.082031,58 L161.082031,16 L167.726562,16 L167.726562,31.2578125 C169.640635,28.9973845 172.220036,27.8671875 175.464844,27.8671875 C179.074237,27.8671875 181.908844,29.2070179 183.96875,31.8867188 C186.028656,34.5664196 187.058594,38.3124759 187.058594,43.125 L187.058594,43.5078125 Z M180.414062,42.9335938 C180.414062,39.7252444 179.848964,37.3190184 178.71875,35.7148438 C177.588536,34.1106691 175.947927,33.3085938 173.796875,33.3085938 C170.916652,33.3085938 168.893235,34.5663937 167.726562,37.0820312 L167.726562,49.2773438 C168.911464,51.8476691 170.953111,53.1328125 173.851562,53.1328125 C175.929698,53.1328125 177.533849,52.3580807 178.664062,50.8085938 C179.794276,49.2591068 180.377604,46.9166823 180.414062,43.78125 L180.414062,42.9335938 Z M228.019531,47.7460938 C228.019531,45.996085 227.404303,44.6471402 226.173828,43.6992188 C224.943353,42.7512973 222.723974,41.7942757 219.515625,40.828125 C216.307276,39.8619743 213.755218,38.7864643 211.859375,37.6015625 C208.231753,35.3229053 206.417969,32.3515808 206.417969,28.6875 C206.417969,25.4791506 207.725898,22.8359479 210.341797,20.7578125 C212.957695,18.6796771 216.352844,17.640625 220.527344,17.640625 C223.298191,17.640625 225.768218,18.1510366 227.9375,19.171875 C230.106782,20.1927134 231.811192,21.6464749 233.050781,23.5332031 C234.290371,25.4199313 234.910156,27.5117073 234.910156,29.8085938 L228.019531,29.8085938 C228.019531,27.7304584 227.367845,26.1035215 226.064453,24.9277344 C224.761061,23.7519472 222.897148,23.1640625 220.472656,23.1640625 C218.212228,23.1640625 216.457689,23.6471306 215.208984,24.6132812 C213.96028,25.5794319 213.335938,26.9283768 213.335938,28.6601562 C213.335938,30.1184969 214.01041,31.3352816 215.359375,32.3105469 C216.70834,33.2858122 218.932276,34.2337194 222.03125,35.1542969 C225.130224,36.0748744 227.61848,37.123041 229.496094,38.2988281 C231.373707,39.4746153 232.749996,40.8235601 233.625,42.3457031 C234.500004,43.8678462 234.9375,45.6497294 234.9375,47.6914062 C234.9375,51.0091312 233.666028,53.6477767 231.123047,55.6074219 C228.580065,57.5670671 225.13023,58.546875 220.773438,58.546875 C217.893215,58.546875 215.245455,58.0136772 212.830078,56.9472656 C210.414701,55.880854 208.537116,54.4088636 207.197266,52.53125 C205.857415,50.6536364 205.1875,48.4661583 205.1875,45.96875 L212.105469,45.96875 C212.105469,48.229178 212.852857,49.9791605 214.347656,51.21875 C215.842455,52.4583395 217.984361,53.078125 220.773438,53.078125 C223.1797,53.078125 224.988926,52.5904997 226.201172,51.6152344 C227.413418,50.6399691 228.019531,49.3502684 228.019531,47.7460938 Z M246.53125,28.4140625 L246.722656,31.8320312 C248.910167,29.1887889 251.781232,27.8671875 255.335938,27.8671875 C261.497427,27.8671875 264.632812,31.394496 264.742188,38.4492188 L264.742188,58 L258.097656,58 L258.097656,38.8320312 C258.097656,36.9544177 257.692061,35.5644576 256.880859,34.6621094 C256.069657,33.7597611 254.743499,33.3085938 252.902344,33.3085938 C250.222643,33.3085938 248.226569,34.5208212 246.914062,36.9453125 L246.914062,58 L240.269531,58 L240.269531,28.4140625 L246.53125,28.4140625 Z M270.265625,42.9335938 C270.265625,40.0351418 270.839838,37.4238397 271.988281,35.0996094 C273.136724,32.775379 274.74999,30.9889385 276.828125,29.7402344 C278.90626,28.4915302 281.294257,27.8671875 283.992188,27.8671875 C287.984395,27.8671875 291.224597,29.1523309 293.712891,31.7226562 C296.201184,34.2929816 297.545572,37.7018017 297.746094,41.9492188 L297.773438,43.5078125 C297.773438,46.4244937 297.212896,49.0312385 296.091797,51.328125 C294.970698,53.6250115 293.366547,55.4023375 291.279297,56.6601562 C289.192047,57.917975 286.781264,58.546875 284.046875,58.546875 C279.872375,58.546875 276.531914,57.1569149 274.025391,54.3769531 C271.518868,51.5969913 270.265625,47.8919502 270.265625,43.2617188 L270.265625,42.9335938 Z M276.910156,43.5078125 C276.910156,46.5520986 277.539056,48.9355383 278.796875,50.6582031 C280.054694,52.380868 281.804676,53.2421875 284.046875,53.2421875 C286.289074,53.2421875 288.034499,52.3671962 289.283203,50.6171875 C290.531907,48.8671788 291.15625,46.3060064 291.15625,42.9335938 C291.15625,39.9439955 290.513678,37.5742275 289.228516,35.8242188 C287.943353,34.07421 286.197928,33.1992188 283.992188,33.1992188 C281.822906,33.1992188 280.100267,34.0605383 278.824219,35.7832031 C277.548171,37.505868 276.910156,40.080712 276.910156,43.5078125 Z M302.148438,42.9335938 C302.148438,40.0351418 302.722651,37.4238397 303.871094,35.0996094 C305.019537,32.775379 306.632802,30.9889385 308.710938,29.7402344 C310.789073,28.4915302 313.17707,27.8671875 315.875,27.8671875 C319.867207,27.8671875 323.107409,29.1523309 325.595703,31.7226562 C328.083997,34.2929816 329.428384,37.7018017 329.628906,41.9492188 L329.65625,43.5078125 C329.65625,46.4244937 329.095709,49.0312385 327.974609,51.328125 C326.85351,53.6250115 325.249359,55.4023375 323.162109,56.6601562 C321.074859,57.917975 318.664076,58.546875 315.929688,58.546875 C311.755187,58.546875 308.414726,57.1569149 305.908203,54.3769531 C303.40168,51.5969913 302.148438,47.8919502 302.148438,43.2617188 L302.148438,42.9335938 Z M308.792969,43.5078125 C308.792969,46.5520986 309.421869,48.9355383 310.679688,50.6582031 C311.937506,52.380868 313.687489,53.2421875 315.929688,53.2421875 C318.171886,53.2421875 319.917311,52.3671962 321.166016,50.6171875 C322.41472,48.8671788 323.039062,46.3060064 323.039062,42.9335938 C323.039062,39.9439955 322.396491,37.5742275 321.111328,35.8242188 C319.826165,34.07421 318.08074,33.1992188 315.875,33.1992188 C313.705718,33.1992188 311.983079,34.0605383 310.707031,35.7832031 C309.430983,37.505868 308.792969,40.080712 308.792969,43.5078125 Z M341.933594,52.6953125 L357.683594,52.6953125 L357.683594,58 L333.675781,58 L333.675781,53.6523438 L348.6875,33.7734375 L333.949219,33.7734375 L333.949219,28.4140625 L357.109375,28.4140625 L357.109375,32.625 L341.933594,52.6953125 Z M375.59375,58.546875 C371.382791,58.546875 367.969414,57.2207164 365.353516,54.5683594 C362.737617,51.9160024 361.429688,48.3841366 361.429688,43.9726562 L361.429688,43.1523438 C361.429688,40.199204 361.999343,37.5605585 363.138672,35.2363281 C364.278,32.9120978 365.877594,31.1028711 367.9375,29.8085938 C369.997406,28.5143164 372.294258,27.8671875 374.828125,27.8671875 C378.856791,27.8671875 381.96939,29.1523309 384.166016,31.7226562 C386.362641,34.2929816 387.460938,37.929664 387.460938,42.6328125 L387.460938,45.3125 L368.128906,45.3125 C368.329428,47.7552205 369.145175,49.6874929 370.576172,51.109375 C372.007169,52.5312571 373.807281,53.2421875 375.976562,53.2421875 C379.020849,53.2421875 381.49999,52.0117311 383.414062,49.5507812 L386.996094,52.96875 C385.811192,54.736988 384.229828,56.1087191 382.251953,57.0839844 C380.274079,58.0592497 378.0547,58.546875 375.59375,58.546875 Z M374.800781,33.1992188 C372.977855,33.1992188 371.505865,33.8372332 370.384766,35.1132812 C369.263666,36.3893293 368.548179,38.1666553 368.238281,40.4453125 L380.898438,40.4453125 L380.898438,39.953125 C380.752603,37.7291555 380.160161,36.0475317 379.121094,34.9082031 C378.082026,33.7688745 376.641936,33.1992188 374.800781,33.1992188 Z" id="Tab-Snooze"></path>
        </g>
    </g>
</svg>