<?xml version="1.0" encoding="UTF-8"?>
<svg width="50px" height="50px" viewBox="0 0 50 50" version="1.1" xmlns="http://www.w3.org/2000/svg" xmlns:xlink="http://www.w3.org/1999/xlink">
    <!-- Generator: Sketch 52.6 (67491) - http://www.bohemiancoding.com/sketch -->
    <title>pine_white</title>
    <desc>Created with Sketch.</desc>
    <g id="pine_white" stroke="none" stroke-width="1" fill="none" fill-rule="evenodd">
        <g id="beach" fill="#FFFFFF" fill-rule="nonzero">
            <path d="M49.98,15.8036 C49.5524,13.6668 47.1882,11.96 43.4918,11.12 C38.8228525,10.0884269 33.9420971,10.6701524 29.6464,12.7702 C27.7698333,7.68419734 23.706701,3.71094565 18.58,1.9486 C14.945767,0.396186687 10.7865568,0.687286743 7.404,2.7308 C7.16311048,2.90362544 7.01132578,3.17442965 6.98962112,3.47010735 C6.96791646,3.76578505 7.07852966,4.05585096 7.2916,4.262 L14.2272,10.968 C14.5173346,11.2490633 14.9480757,11.327968 15.319,11.168 L16.406,10.6982 L16.528,12.1006 C16.5534547,12.4006349 16.7131991,12.6730752 16.9626,12.8418 L17.1382,12.9618 C12.9060345,12.068639 8.51246627,12.3171323 4.408,13.6818 C2.33058165,14.2037652 0.670787434,15.7628672 0.02,17.8036 C-0.0869923959,18.3371857 0.252346653,18.8583706 0.7836,18.9764 L8.9652,20.7948 C9.29890345,20.8667244 9.64636366,20.7653223 9.889,20.5252 L10.726,19.6882 L11.3558,20.947 C11.4904805,21.2164959 11.7394845,21.4109086 12.0336,21.4762 L18.7836,22.9762 C18.8547021,22.9916822 18.9272327,22.9996592 19,23 L19.019,22.9968 C19.6010341,23.769664 20.3953953,24.3564531 21.3052,24.6856 C18.4862,29.3344 12.7,42.93 12.0708,49 L7,49 C6.44771525,49 6,49.4477153 6,50 C6,50.5522847 6.44771525,51 7,51 L41,51 C41.5522847,51 42,50.5522847 42,50 C42,49.4477153 41.5522847,49 41,49 L35.4448,49 C35.8044528,48.3945783 35.9961072,47.7041807 36,47 C36,44.790861 34.209139,43 32,43 C29.790861,43 28,44.790861 28,47 C28.0037717,47.7041437 28.1952873,48.3945388 28.5548,49 L24.0272,49 C24.5106726,41.8833683 25.8881701,34.8559134 28.1272,28.0834 C30.2871979,29.6221958 33.2738585,29.2004875 34.9233602,27.1238008 C36.5728619,25.0471142 36.3077075,22.0425057 34.32,20.2868 L37.9664,19.4764 C38.2605155,19.4111086 38.5095195,19.2166959 38.6442,18.9472 L39.274,17.6884 L40.111,18.5254 C40.353751,18.7653275 40.7011047,18.8666985 41.0348,18.795 L49.2164,16.9766 C49.7477471,16.8585718 50.0871145,16.3372542 49.98,15.8036 Z M16.8864,8.3108 L15.1384,9.0666 L9.6296,3.74 C12.3005462,2.71255814 15.2632865,2.74540115 17.9108,3.8318 C22.6126882,5.44654822 26.3029085,9.14592475 27.906,13.8518 C27.1079801,14.4207302 26.3799975,15.0819833 25.7372,15.8218 C25.1570248,15.4441308 24.5042324,15.192061 23.8208,15.0818 L23.8072,15.0678 L18.48,11.4534 L18.28,9.1428 C18.2523262,8.82263367 18.0724707,8.53527468 17.796596,8.37045511 C17.5207213,8.20563555 17.1824454,8.18344024 16.8874,8.3108 L16.8864,8.3108 Z M26.7052,26.5218 C25.996754,27.9511538 25.4439797,29.4525085 25.0564,31 L20.32,31 C21.2145464,28.8961249 22.2850099,26.8714771 23.52,24.9476 C24.4207969,24.8568702 25.2793982,24.520583 26.0022,23.9754 L26,24 C26.0044159,24.888665 26.2480075,25.7597502 26.7052,26.5218 Z M22.6478,43 L15.5576,43 C15.9764,41.7114 16.4532,40.3662 16.9704,39 L23.2874,39 C23.045,40.361 22.8308,41.708 22.6478,43 Z M23.6612,37 L17.748,37 C18.2958,35.6282 18.86,34.283 19.4226,33 L24.5324,33 C24.2234,34.269 23.9318,35.6234 23.6612,37 Z M12.9312,19.6268 L11.8942,17.5526 C11.7502393,17.2651781 11.4770714,17.0643194 11.1598,17.0126 C10.8421749,16.9561788 10.5172576,17.0610875 10.2926,17.2926 L8.862,18.7222 L2.4186,17.2908 C3.15191473,16.4837919 4.08395397,15.8830969 5.1218,15.5486 C9.98897765,13.9417058 15.2667196,14.101176 20.028,15.999 C18.5022495,17.0723307 17.740576,18.9353967 18.0774,20.7702 L12.9312,19.6268 Z M20,20 C20,18.3431458 21.3431458,17 23,17 C24.6568542,17 26,18.3431458 26,20 C26,21.6568542 24.6568542,23 23,23 C21.3439225,22.9981263 20.0018737,21.6560775 20,20 Z M30,47 C30,45.8954305 30.8954305,45 32,45 C33.1045695,45 34,45.8954305 34,47 C34,48.1045695 33.1045695,49 32,49 C30.8959331,48.9987875 30.0012125,48.1040669 30,47 Z M14.074,49 C14.2589927,47.6458554 14.5503604,46.3083859 14.9454,45 L22.3854,45 C22.2026,46.52 22.0766,47.8936 22.0272,49 L14.074,49 Z M31,27 C29.3431458,27 28,25.6568542 28,24 C28,22.3431458 29.3431458,21 31,21 C32.6568542,21 34,22.3431458 34,24 C33.9981263,25.6560775 32.6560775,26.9981263 31,27 Z M41.1376,16.7226 L39.707,15.293 C39.4796903,15.0656849 39.1569591,14.9615082 38.8396448,15.0130203 C38.5223306,15.0645323 38.2491279,15.2654515 38.1054,15.553 L37.068,17.6268 L30.796,19.02 C29.7822041,19.0600171 28.8051849,19.4105683 27.9972,20.0242 L28,20 C28.001111,19.0098545 27.7067544,18.041897 27.1546,17.22 C30.7296,12.9532 37.7588,11.872 43.0498,13.072 C44.7415438,13.3426874 46.312068,14.1180853 47.5556,15.2966 L41.1376,16.7226 Z" id="Shape"></path>
        </g>
    </g>
</svg>