<?xml version="1.0" encoding="UTF-8"?>
<svg width="50px" height="50px" viewBox="0 0 50 50" version="1.1" xmlns="http://www.w3.org/2000/svg" xmlns:xlink="http://www.w3.org/1999/xlink">
    <!-- Generator: Sketch 52.5 (67469) - http://www.bohemiancoding.com/sketch -->
    <title>alarm</title>
    <desc>Created with Sketch.</desc>
    <g id="alarm" stroke="none" stroke-width="1" fill="none" fill-rule="evenodd">
        <g id="Group-12" transform="translate(2.000000, 1.000000)">
            <g id="alarm-copy">
                <path d="M30.316,5.4688 C36.8072968,11.8481653 37.8592096,21.9362969 32.8236238,29.517597 C27.7880379,37.0988971 18.0812916,40.0410047 9.684,36.5312 C15.1411087,41.9041598 23.2913584,43.4737594 30.3536272,40.511819 C37.415896,37.5498787 42.0081559,30.6360258 41.9999329,22.9777842 C41.9917099,15.3195426 37.3846133,8.41556743 30.316,5.4688 Z" id="Path" fill="#ECECEC"></path>
                <path d="M44,23 C44.0020888,20.1501714 43.4218904,17.3299648 42.295,14.7124 C45.0587785,12.9600109 46.4717427,9.69724274 45.8589657,6.4826131 C45.2461888,3.26798347 42.7320165,0.753811244 39.5173869,0.141034271 C36.3027573,-0.471742703 33.0399891,0.941221462 31.2876,3.705 C25.9964012,1.43155735 20.0035988,1.43155735 14.7124,3.705 C12.9600109,0.941221462 9.69724274,-0.471742703 6.4826131,0.141034271 C3.26798347,0.753811244 0.753811244,3.26798347 0.141034271,6.4826131 C-0.471742703,9.69724274 0.941221462,12.9600109 3.705,14.7124 C-0.26587937,23.9549849 2.87671193,34.7153235 11.1978,40.368 L8.1054,46.5528 C7.85836306,47.0468187 8.05858132,47.647563 8.55260002,47.8946 C9.04661871,48.1416369 9.64736302,47.9414187 9.8944,47.4474 L12.9096,41.4166 C19.1953152,44.8610931 26.8038848,44.8610931 33.0896,41.4166 L36.1048,47.4474 C36.2646049,47.7669741 36.5827615,47.9770178 36.9394232,47.9984097 C37.2960849,48.0198017 37.6370663,47.8492919 37.8339232,47.5511097 C38.03078,47.2529276 38.0536049,46.8723741 37.8938,46.5528 L34.8022,40.368 C40.5584968,36.4620846 44.0038124,29.9563722 44,23 Z M38,2 C40.6219241,1.98996353 42.9442989,3.68983277 43.7273157,6.19212601 C44.5103325,8.69441926 43.5711685,11.4148882 41.4112,12.9012 C39.4841287,9.39864872 36.6013513,6.51587125 33.0988,4.5888 C34.2074625,2.97244844 36.0399734,2.00452135 38,2 Z M2,8 C1.98987516,5.37803882 3.68971406,3.05558278 6.19202992,2.272513 C8.69434577,1.48944321 11.4148675,2.42860034 12.9012,4.5886 C9.3986213,6.5157253 6.51584103,9.39857493 4.5888,12.9012 C2.97244844,11.7925375 2.00452135,9.96002662 2,8 Z M23,42 C12.5065898,42 4,33.4934102 4,23 C4,12.5065898 12.5065898,4 23,4 C33.4934102,4 42,12.5065898 42,23 C41.9880965,33.4884757 33.4884757,41.9880965 23,42 Z" id="Shape" fill="#333333" fill-rule="nonzero"></path>
                <path d="M24,22.5856 L24,11 C24,10.4477153 23.5522847,10 23,10 C22.4477153,10 22,10.4477153 22,11 L22,23 L22,23.0034 C22.0008189,23.2625073 22.1029639,23.5110147 22.2846,23.6958 L22.2922,23.707 L30.2922,31.707 C30.6827758,32.0975205 31.3159794,32.0974757 31.7064999,31.7068999 C32.0970205,31.3163242 32.0969757,30.6831206 31.7064,30.2926 L24,22.5856 Z" id="Path" fill="#333333"></path>
            </g>
            <path d="M23,44 C11.4020203,44 2,34.5979797 2,23 C2,11.4020203 11.4020203,2 23,2 C34.5979797,2 44,11.4020203 44,23 C43.9868436,34.5925258 34.5925258,43.9868436 23,44 Z" id="Path" fill="#FFFFFF" fill-rule="nonzero"></path>
            <g id="Group-5" transform="translate(4.000000, 4.000000)">
                <path d="M19.0011408,39.0052077 L19,39.0052083 C7.95142852,39.0052083 -1.00520833,30.0485715 -1.00520833,19 C-1.00520833,7.95142852 7.95142852,-1.00520833 19,-1.00520833 C30.0485715,-1.00520833 39.0052083,7.95142852 39.0052077,19.0011408 C38.9926752,30.0438866 30.0438866,38.9926752 19.0011408,39.0052077 Z" id="Path" stroke="#2595B9" stroke-width="2.01041667" fill="#45C9F4" fill-rule="nonzero"></path>
                <path d="M20,18.5856 L20,7 C20,6.44771525 19.5522847,6 19,6 C18.4477153,6 18,6.44771525 18,7 L18,19 L18,19.0034 C18.0008189,19.2625073 18.1029639,19.5110147 18.2846,19.6958 L18.2922,19.707 L26.2922,27.707 C26.6827758,28.0975205 27.3159794,28.0974757 27.7064999,27.7068999 C28.0970205,27.3163242 28.0969757,26.6831206 27.7064,26.2926 L20,18.5856 Z" id="Path" fill="#227894"></path>
                <path d="M26.316,1.4688 C32.8072968,7.84816531 33.8592096,17.9362969 28.8236238,25.517597 C23.7880379,33.0988971 14.0812916,36.0410047 5.684,32.5312 C11.1411087,37.9041598 19.2913584,39.4737594 26.3536272,36.511819 C33.415896,33.5498787 38.0081559,26.6360258 37.9999329,18.9777842 C37.9917099,11.3195426 33.3846133,4.41556743 26.316,1.4688 Z" id="Path" fill="#36BAE5"></path>
            </g>
        </g>
    </g>
</svg>