<?xml version="1.0" encoding="UTF-8"?>
<svg width="50px" height="50px" viewBox="0 0 50 50" version="1.1" xmlns="http://www.w3.org/2000/svg" xmlns:xlink="http://www.w3.org/1999/xlink">
    <!-- Generator: Sketch 52.5 (67469) - http://www.bohemiancoding.com/sketch -->
    <title>cloud</title>
    <desc>Created with Sketch.</desc>
    <g id="cloud" stroke="none" stroke-width="1" fill="none" fill-rule="evenodd">
        <g id="Group-21" transform="translate(0.000000, 5.000000)">
            <g id="cloud-upload">
                <path d="M24.9994607,2.00498972 C18.2996425,1.82165955 12.4821545,6.7094613 11.3325183,13.4878333 C5.63773457,14.4001021 1.58651355,19.6585544 2.03370027,25.5576242 C2.48088698,31.456694 7.27578226,36.0084312 13.0394831,36.0052833 L36.9594382,36.0052833 C42.7231391,36.0084312 47.5180344,31.456694 47.9652211,25.5576242 C48.4124078,19.6585544 44.3611868,14.4001021 38.666403,13.4878333 C37.5167668,6.7094613 31.6992788,1.82165955 24.9994607,2.00498972 Z" id="Path-Copy" fill="#45C9F4"></path>
                <path d="M38,15 C37.9832,15 37.9678,15.0048 37.951,15.0048 C41.4121286,17.5593914 42.8442724,22.0459844 41.5033155,26.1334265 C40.1623586,30.2208685 36.3507771,32.9871657 32.049,32.995 L32.0566,33 L17.9924,33 L18,32.9952 C13.698111,32.9874822 9.88638219,30.2211473 8.54540394,26.1335948 C7.20442569,22.0460423 8.63669554,17.559341 12.098,15.0048 C12.0812,15.0048 12.0656,15 12.049,15 C6.92755839,15.0034846 2.63653064,18.8757453 2.10899568,23.9699462 C1.58146072,29.0641472 4.98795003,33.7335318 10,34.7864 L10,37 L36,37 L36,34.7692 C36.656794,34.9156678 37.3271089,34.9930221 38,35 C43.5228475,35 48,30.5228475 48,25 C48,19.4771525 43.5228475,15 38,15 Z" id="Path" fill="#36BAE5"></path>
                <path d="M39.8554,13.1582 C38.6057931,5.98116219 32.2824247,0.805887379 25,1 C17.7175753,0.805887379 11.3942069,5.98116219 10.1446,13.1582 C3.95460606,14.1241234 -0.448903306,19.6918482 0.0371701218,25.9378682 C0.52324355,32.1838882 5.73509603,37.003333 12,37 L15,37 C15.5522847,37 16,36.5522847 16,36 C16,35.4477153 15.5522847,35 15,35 L12,35 C6.77922143,35.0040131 2.43523881,30.9884084 2.02971038,25.783402 C1.62418195,20.5783956 5.29379937,15.9384415 10.4522,15.1338 L11.9176,14.9062 L12.125,13.4374 C13.2472215,7.25436751 18.7185609,2.81890672 25,3 C31.2815316,2.8188369 36.7529436,7.25444153 37.875,13.4376 L38.0826,14.9064 L39.548,15.134 C44.705842,15.9392429 48.3747436,20.5789645 47.9691947,25.7835087 C47.5636458,30.9880528 43.2203197,35.0034451 38,35 L35,35 C34.4477153,35 34,35.4477153 34,36 C34,36.5522847 34.4477153,37 35,37 L38,37 C44.264904,37.003333 49.4767564,32.1838882 49.9628299,25.9378682 C50.4489033,19.6918482 46.0453939,14.1241234 39.8554,13.1582 Z" id="Path" fill="#2595B9"></path>
            </g>
            <rect id="Rectangle" fill="#2595B9" fill-rule="nonzero" x="14" y="35" width="21" height="2"></rect>
            <polygon id="Path" fill="#FFFFFF" points="22.1111111 27.7294444 16 21.6183333 17.7294444 19.8888889 22.1111111 24.2705556 31.3816667 15 33.1111111 16.7294444"></polygon>
        </g>
    </g>
</svg>