<?xml version="1.0" encoding="UTF-8"?>
<svg width="50px" height="50px" viewBox="0 0 50 50" version="1.1" xmlns="http://www.w3.org/2000/svg" xmlns:xlink="http://www.w3.org/1999/xlink">
    <!-- Generator: Sketch 52.5 (67469) - http://www.bohemiancoding.com/sketch -->
    <title>edit</title>
    <desc>Created with Sketch.</desc>
    <g id="edit" stroke="none" stroke-width="1" fill="none" fill-rule="evenodd">
        <g id="vector-editing">
            <path d="M7.9498,47.707 C7.76278706,47.8953881 7.50804876,48.0009287 7.2426,48 L1.999997,48.0000061 L2,42.7578 C1.99934856,42.4921711 2.10483031,42.2372868 2.293,42.0498 L24.5146,19.8282 L30.1718,25.4854 L7.9498,47.707 Z M33.707,21.9492 L31.586,24.0712 L25.9288,18.414 L28.0502,16.293 C28.4406999,15.9026181 29.0737001,15.9026181 29.4642,16.293 L33.7068,20.5352 C34.0972372,20.9256446 34.0973267,21.5586449 33.707,21.9492 Z" id="Shape-Copy-3" fill="#45C9F4" fill-rule="nonzero"></path>
            <path d="M33.707,21.9492 L31.586,24.0712 L25.9288,18.414 L28.0502,16.293 C28.4406999,15.9026181 29.0737001,15.9026181 29.4642,16.293 L33.7068,20.5352 C34.0972372,20.9256446 34.0973267,21.5586449 33.707,21.9492 Z" id="Shape-Copy-4" fill="#FFFFFF" fill-rule="nonzero"></path>
            <polyline id="Path" fill="#36BAE5" points="2 48 32 18 35.334 21.334 7.666 49.166 2 48"></polyline>
            <polyline id="Path-Copy" fill="#ECECEC" points="28 22 32 18 35.334 21.334 31.666 25.166"></polyline>
            <path d="M48,8 C49.1045695,8 50,7.1045695 50,6 L50,2 C50,0.8954305 49.1045695,6.76353751e-17 48,0 L44,0 C42.8954305,-6.76353751e-17 42,0.8954305 42,2 L42,4 L8,4 L8,2 C8,0.8954305 7.1045695,6.76353751e-17 6,0 L2,0 C0.8954305,-6.76353751e-17 1.3527075e-16,0.8954305 0,2 L0,6 C1.3527075e-16,7.1045695 0.8954305,8 2,8 L4,8 L4,23 C4,23.5522847 4.44771525,24 5,24 C5.55228475,24 6,23.5522847 6,23 L6,8 C7.1045695,8 8,7.1045695 8,6 L42,6 C42,7.1045695 42.8954305,8 44,8 L44,42 C42.8954305,42 42,42.8954305 42,44 L27,44 C26.4477153,44 26,44.4477153 26,45 C26,45.5522847 26.4477153,46 27,46 L42,46 L42,48 C42,49.1045695 42.8954305,50 44,50 L48,50 C49.1045695,50 50,49.1045695 50,48 L50,44 C50,42.8954305 49.1045695,42 48,42 L46,42 L46,8 L48,8 Z M6,6 L2,6 L2,2 L6,2 L6,6 Z M48,44 L48,48 L44,48 L44,44 L48,44 Z M44,6 L44,2 L48,2 L48,6 L44,6 Z" id="Shape" fill="#333333" fill-rule="nonzero"></path>
            <path d="M35.1212,19.121 L30.8786,14.879 C29.7070547,13.7075876 27.8077453,13.7075876 26.6362,14.879 L0.8786,40.6358 C0.31585351,41.1985887 -0.000201414323,41.9619265 -2.39808173e-14,42.7578 L-2.39808173e-14,48 C-2.38455466e-14,49.1045695 0.8954305,50 2,50 L7.2426,50 C8.03829682,49.9998044 8.80134913,49.6836344 9.364,49.121 L35.1212,23.3642 C35.6839802,22.8015681 36.0001593,22.0383865 36.0001593,21.2426 C36.0001593,20.4468135 35.6839802,19.6836319 35.1212,19.121 Z M7.9498,47.707 C7.76278706,47.8953881 7.50804876,48.0009287 7.2426,48 L1.999997,48.0000061 L2,42.7578 C1.99934856,42.4921711 2.10483031,42.2372868 2.293,42.0498 L24.5146,19.8282 L30.1718,25.4854 L7.9498,47.707 Z M33.707,21.9492 L31.586,24.0712 L25.9288,18.414 L28.0502,16.293 C28.4406999,15.9026181 29.0737001,15.9026181 29.4642,16.293 L33.7068,20.5352 C34.0972372,20.9256446 34.0973267,21.5586449 33.707,21.9492 Z" id="Shape" fill="#2595B9" fill-rule="nonzero"></path>
        </g>
    </g>
</svg>