<?xml version="1.0" encoding="UTF-8"?>
<svg width="50px" height="50px" viewBox="0 0 50 50" version="1.1" xmlns="http://www.w3.org/2000/svg" xmlns:xlink="http://www.w3.org/1999/xlink">
    <!-- Generator: Sketch 52.5 (67469) - http://www.bohemiancoding.com/sketch -->
    <title>heart</title>
    <desc>Created with Sketch.</desc>
    <g id="heart" stroke="none" stroke-width="1" fill="none" fill-rule="evenodd">
        <g id="Group-6" transform="translate(2.000000, 5.000000)">
            <path d="M23.0052185,6.2803828 C23.0442702,6.23005673 23.0840621,6.17917177 23.1245888,6.12775412 C23.8934998,5.15221091 24.773015,4.17722236 25.7521105,3.26466384 C28.6029514,0.607559038 31.7108953,-1.00520833 35,-1.00520833 C42.3792331,-1.00520833 47.0052083,4.23756359 47.0052083,12 C47.0052083,13.1069427 46.8748763,14.2359242 46.6202663,15.3847227 C45.3775409,20.9918912 41.2691971,26.8845875 35.2026855,32.8150773 C32.6567615,35.3039173 29.9324372,37.631554 27.2081519,39.7354247 C26.2544333,40.4719485 25.3683179,41.1282752 24.5721775,41.6964044 C24.2926795,41.8958554 24.0441081,42.0702202 23.8292625,42.2184938 C23.6989929,42.308398 23.6080683,42.3701852 23.5592893,42.402848 L22.99698,42.7793752 L22.4365544,42.4000499 C22.3878588,42.3670902 22.297018,42.3047126 22.1668328,42.213955 C21.9520786,42.0642408 21.7035989,41.8882336 21.4241933,41.6869692 C20.6282628,41.1136362 19.7423584,40.4517892 18.788853,39.7096746 C16.0651341,37.5898002 13.3413659,35.2488281 10.7959869,32.7513021 C5.02200807,27.0858741 1.01511354,21.4697983 -0.428113384,16.130891 C-0.809043023,14.7217239 -1.00520833,13.3434536 -1.00520833,12 C-1.00520833,4.23756359 3.62076689,-1.00520833 11,-1.00520833 C14.325196,-1.00520833 17.4427411,0.608187756 20.2808697,3.26632705 C21.2560802,4.1796914 22.129277,5.15555106 22.8904402,6.13200112 C22.9293933,6.18197174 22.9676542,6.2314403 23.0052185,6.2803828 Z" id="Path" stroke="#2595B9" stroke-width="2.01041667" fill="#45C9F4" fill-rule="nonzero"></path>
            <path d="M41.472,1.8972 C41.8285138,3.23546192 42.0060602,4.61507749 42,6 C42,20.1668 19,35.5676 19,35.5676 C12.8283586,31.2605523 7.24352068,26.1685871 2.3862,20.42 C8.264,31.5858 23,41.5678 23,41.5678 C23,41.5678 46,26.167 46,12 C46.2479633,8.09195009 44.5541412,4.31272179 41.472,1.8972 Z" id="Path" fill="#36BAE5"></path>
        </g>
    </g>
</svg>