<?xml version="1.0" encoding="UTF-8"?>
<svg width="50px" height="50px" viewBox="0 0 50 50" version="1.1" xmlns="http://www.w3.org/2000/svg" xmlns:xlink="http://www.w3.org/1999/xlink">
    <!-- Generator: Sketch 52.5 (67469) - http://www.bohemiancoding.com/sketch -->
    <title>keyboard</title>
    <desc>Created with Sketch.</desc>
    <g id="keyboard" stroke="none" stroke-width="1" fill="none" fill-rule="evenodd">
        <g id="Group-8" transform="translate(2.000000, 1.000000)">
            <path d="M44,45 C44,45.5522847 43.5522847,46 43,46 L3,46 C2.44771525,46 2,45.5522847 2,45 L2,17 C2,16.4477153 2.44771525,16 3,16 L43,16 C43.5522847,16 44,16.4477153 44,17 L44,45 Z" id="Path" fill="#45C9F4"></path>
            <g id="keyboard-a-copy">
                <path d="M43,16 L40,16 L40,41 C40,41.5522847 39.5522847,42 39,42 L2,42 L2,45 C2,45.5522847 2.44771525,46 3,46 L43,46 C43.5522847,46 44,45.5522847 44,45 L44,17 C44,16.4477153 43.5522847,16 43,16 Z" id="Path" fill="#36BAE5"></path>
                <path d="M43,14 L24,14 L24,11 C24.0007711,10.448035 24.448035,10.0007711 25,10 L27,10 C28.6561231,9.99823629 29.9982363,8.65612315 30,7 L30,1 C30,0.44771525 29.5522847,0 29,0 C28.4477153,0 28,0.44771525 28,1 L28,7 C27.9992289,7.55196502 27.551965,7.99922887 27,8 L25,8 C23.3438769,8.00176371 22.0017637,9.34387685 22,11 L22,14 L3,14 C1.34314575,14 2.02906125e-16,15.3431458 0,17 L0,45 C3.1460705e-15,46.6568542 1.34314575,48 3,48 L43,48 C44.6568542,48 46,46.6568542 46,45 L46,17 C46,15.3431458 44.6568542,14 43,14 Z M44,45 C44,45.5522847 43.5522847,46 43,46 L3,46 C2.44771525,46 2,45.5522847 2,45 L2,17 C2,16.4477153 2.44771525,16 3,16 L43,16 C43.5522847,16 44,16.4477153 44,17 L44,45 Z" id="Shape" fill="#2595B9" fill-rule="nonzero"></path>
                <path d="M29,38 L17,38 C16.4477153,38 16,38.4477153 16,39 C16,39.5522847 16.4477153,40 17,40 L29,40 C29.5522847,40 30,39.5522847 30,39 C30,38.4477153 29.5522847,38 29,38 Z" id="Path" fill="#227894"></path>
                <rect id="Rectangle" fill="#227894" x="10" y="30" width="2" height="2"></rect>
                <rect id="Rectangle" fill="#227894" x="10" y="38" width="2" height="2"></rect>
                <rect id="Rectangle" fill="#227894" x="18" y="30" width="2" height="2"></rect>
                <rect id="Rectangle" fill="#227894" x="26" y="30" width="2" height="2"></rect>
                <rect id="Rectangle" fill="#227894" x="34" y="30" width="2" height="2"></rect>
                <rect id="Rectangle" fill="#227894" x="34" y="38" width="2" height="2"></rect>
                <rect id="Rectangle" fill="#227894" x="10" y="22" width="2" height="2"></rect>
                <rect id="Rectangle" fill="#227894" x="18" y="22" width="2" height="2"></rect>
                <rect id="Rectangle" fill="#227894" x="26" y="22" width="2" height="2"></rect>
                <rect id="Rectangle" fill="#227894" x="34" y="22" width="2" height="2"></rect>
            </g>
        </g>
    </g>
</svg>