<?xml version="1.0" encoding="UTF-8"?>
<svg width="50px" height="50px" viewBox="0 0 50 50" version="1.1" xmlns="http://www.w3.org/2000/svg" xmlns:xlink="http://www.w3.org/1999/xlink">
    <!-- Generator: Sketch 52.5 (67469) - http://www.bohemiancoding.com/sketch -->
    <title>location</title>
    <desc>Created with Sketch.</desc>
    <g id="location" stroke="none" stroke-width="1" fill="none" fill-rule="evenodd">
        <g id="location-pin-tick" transform="translate(8.000000, 0.000000)">
            <path d="M17.7876,47.6128 C17.6009543,47.8572018 17.3110204,48.0005956 17.0035,48.0005956 C16.6959796,48.0005956 16.4060457,47.8572018 16.2194,47.6128 C11.58,41.6108 2,26.233 2,17 C2,8.71572875 8.71572875,2 17,2 C25.2842712,2 32,8.71572875 32,17 C32,26.2832 22.4244,41.6334 17.7872,47.6128 L17.7876,47.6128 Z" id="Shape-Copy" fill="#45C9F4" fill-rule="nonzero"></path>
            <path d="M25.4112,4.5884 C27.1007018,7.06798166 28.0029357,9.99954452 28,13 C28,22.2832 18.4248,37.6334 13.7876,43.6128 C13.7100305,43.7021752 13.6146647,43.7743807 13.5076,43.8248 C14.5036,45.2994 15.4348,46.5978 16.2188,47.612 C16.4055336,47.8563327 16.6954811,47.9996676 17.003,47.9996676 C17.3105189,47.9996676 17.6004664,47.8563327 17.7872,47.612 C22.4244,41.6334 32,26.2832 32,17 C31.9982263,12.0260687 29.5300858,7.37672845 25.4112,4.5884 Z" id="Path" fill="#36BAE5"></path>
            <path d="M17,0 C7.61115925,1.50984075e-15 1.77635684e-15,7.61115925 0,17 C0,26.9536 9.9664,42.7934 14.6372,48.835 C15.2021153,49.5690224 16.0756255,49.9993989 17.0018639,50.0000645 C17.9281024,50.0007302 18.8022303,49.5716097 19.3682,48.8384 C24.04,42.8126 34,27.0136 34,17 C34,12.4913197 32.2089337,8.16730315 29.0208153,4.97918472 C25.8326968,1.79106629 21.5086803,-7.25051095e-16 17,0 Z M17.7876,47.6128 C17.6009543,47.8572018 17.3110204,48.0005956 17.0035,48.0005956 C16.6959796,48.0005956 16.4060457,47.8572018 16.2194,47.6128 C11.58,41.6108 2,26.233 2,17 C2,8.71572875 8.71572875,2 17,2 C25.2842712,2 32,8.71572875 32,17 C32,26.2832 22.4244,41.6334 17.7872,47.6128 L17.7876,47.6128 Z" id="Shape" fill="#2595B9" fill-rule="nonzero"></path>
            <path d="M21.5,21 L16.121,21 L22.5605,14.5605 C22.9893619,14.1315086 23.1176329,13.4864451 22.885517,12.9260182 C22.6534011,12.3655913 22.1065938,12.0001295 21.5,12 L12.5,12 C11.6715729,12 11,12.6715729 11,13.5 C11,14.3284271 11.6715729,15 12.5,15 L17.879,15 L11.4395,21.4395 C11.0106381,21.8684914 10.8823671,22.5135549 11.114483,23.0739818 C11.3465989,23.6344087 11.8934062,23.9998705 12.5,24 L21.5,24 C22.3284271,24 23,23.3284271 23,22.5 C23,21.6715729 22.3284271,21 21.5,21 Z" id="Path" fill="#FFFFFF"></path>
        </g>
    </g>
</svg>