<?xml version="1.0" encoding="UTF-8"?>
<svg width="50px" height="50px" viewBox="0 0 50 50" version="1.1" xmlns="http://www.w3.org/2000/svg" xmlns:xlink="http://www.w3.org/1999/xlink">
    <!-- Generator: Sketch 52.5 (67469) - http://www.bohemiancoding.com/sketch -->
    <title>periodic</title>
    <desc>Created with Sketch.</desc>
    <g id="periodic" stroke="none" stroke-width="1" fill="none" fill-rule="evenodd">
        <g id="refresh-ui-copy-2">
            <ellipse id="Oval" fill="#45C9F4" fill-rule="nonzero" cx="25" cy="25.1644737" rx="17" ry="17.1118421"></ellipse>
            <path d="M49,2.01315789 C48.4477153,2.01315789 48,2.46381864 48,3.01973684 L48,15.3326132 C43.6430406,5.02371881 33.0374317,-1.1415645 21.9891895,0.211933365 C10.9409472,1.56543122 2.11409586,10.111346 0.34087477,21.1712364 C-1.43234632,32.2311268 4.27563351,43.1381599 14.3399939,47.9213055 C24.4043542,52.7044512 36.3983109,50.2103662 43.7558,41.8044316 C43.9923455,41.5347196 44.0679735,41.1584696 43.9541954,40.8174114 C43.8404174,40.4763532 43.554519,40.2223017 43.2041954,40.1509555 C42.8538718,40.0796093 42.4923455,40.2018077 42.2558,40.4715197 C35.4872914,48.2249959 24.4393324,50.5360265 15.1622747,46.1389889 C5.88521698,41.7419512 0.617036959,31.6975768 2.2428233,21.5066098 C3.86860964,11.3156427 11.9961613,3.43652901 22.1744711,2.18422017 C32.3527809,0.931911335 42.1264564,6.60851154 46.143,16.1052632 L35,16.1052632 C34.4477153,16.1052632 34,16.5559239 34,17.1118421 C34,17.6677603 34.4477153,18.1184211 35,18.1184211 L49,18.1184211 C49.5522847,18.1184211 50,17.6677603 50,17.1118421 L50,3.01973684 C50,2.75277551 49.8946432,2.49674821 49.7071068,2.30797804 C49.5195704,2.11920787 49.2652165,2.01315789 49,2.01315789 Z" id="Path" fill="#333333"></path>
        </g>
    </g>
</svg>