<?xml version="1.0" encoding="UTF-8"?>
<svg width="50px" height="50px" viewBox="0 0 50 50" version="1.1" xmlns="http://www.w3.org/2000/svg" xmlns:xlink="http://www.w3.org/1999/xlink">
    <!-- Generator: Sketch 52.5 (67469) - http://www.bohemiancoding.com/sketch -->
    <title>reorder</title>
    <desc>Created with Sketch.</desc>
    <defs>
        <path d="M2,11 C2,10.4477153 2.44771525,10 3,10 L34,10 L34,3.0468 L48.0484,13.962 L34,24.9472 L34,18 L3,18 C2.44771525,18 2,17.5522847 2,17 L2,11 Z" id="path-1"></path>
        <filter x="-3.3%" y="-6.8%" width="106.5%" height="113.7%" filterUnits="objectBoundingBox" id="filter-2">
            <feOffset dx="0" dy="-3" in="SourceAlpha" result="shadowOffsetInner1"></feOffset>
            <feComposite in="shadowOffsetInner1" in2="SourceAlpha" operator="arithmetic" k2="-1" k3="1" result="shadowInnerInner1"></feComposite>
            <feColorMatrix values="0 0 0 0 0.211764706   0 0 0 0 0.729411765   0 0 0 0 0.898039216  0 0 0 1 0" type="matrix" in="shadowInnerInner1"></feColorMatrix>
        </filter>
    </defs>
    <g id="reorder" stroke="none" stroke-width="1" fill="none" fill-rule="evenodd">
        <g id="arrow-left-right-a">
            <g id="Path">
                <use fill="#45C9F4" fill-rule="evenodd" xlink:href="#path-1"></use>
                <use fill="black" fill-opacity="1" filter="url(#filter-2)" xlink:href="#path-1"></use>
            </g>
            <path d="M47,30 L18,30 L18,23.002 C18.0005369,22.7354988 17.8946742,22.4798077 17.7059101,22.291682 C17.5171461,22.1035562 17.2610979,21.9985603 16.9946,22 C16.7620506,22.0002468 16.5371225,22.0829472 16.3598,22.2334 L0.72,34.4648 C0.264260239,34.8447898 0.000779758585,35.4075275 0.000779758585,36.0009 C0.000779758585,36.5942725 0.264260239,37.1570102 0.72,37.537 L16.36,49.7664 C16.5374702,49.9168922 16.7625125,49.9996533 16.9952,50 C17.2612472,50.001277 17.516836,49.8964842 17.7054118,49.7088093 C17.8939876,49.5211343 18.0000031,49.2660502 18,49 L18,42 L47,42 C48.6568542,42 50,40.6568542 50,39 L50,33 C50,31.3431458 48.6568542,30 47,30 Z M48,39 C48,39.5522847 47.5522847,40 47,40 L16,40 L16,46.9532 L1.9516,36.04 L16,25.0538 L16,32 L47,32 C47.5522847,32 48,32.4477153 48,33 L48,39 Z" id="Shape" fill="#333333" fill-rule="nonzero"></path>
            <path d="M3,20 L32,20 L32,27 C31.9999964,27.2661199 32.1060668,27.5212651 32.2947293,27.7089516 C32.4833918,27.8966382 32.7390837,28.0013838 33.0052,28 C33.2378623,27.9997092 33.4629017,27.91702 33.6404,27.7666 L49.2804,15.5372 C49.7361398,15.1572102 49.9996202,14.5944725 49.9996202,14.0011 C49.9996202,13.4077275 49.7361398,12.8449898 49.2804,12.465 L33.64,0.2344 C33.4629231,0.0836749513 33.2381379,0.000620664262 33.0056,-7.60845651e-16 C32.7388938,-0.00149479087 32.4826412,0.103614371 32.2938046,0.291962803 C32.1049679,0.480311236 31.9991957,0.736290842 32,1.003 L32,8 L3,8 C1.34314575,8 2.02906125e-16,9.34314575 0,11 L0,17 C2.02906125e-16,18.6568542 1.34314575,20 3,20 Z M2,11 C2,10.4477153 2.44771525,10 3,10 L34,10 L34,3.0468 L48.0484,13.962 L34,24.9472 L34,18 L3,18 C2.44771525,18 2,17.5522847 2,17 L2,11 Z" id="Shape" fill="#2595B9" fill-rule="nonzero"></path>
        </g>
    </g>
</svg>