<?xml version="1.0" encoding="UTF-8"?>
<svg width="50px" height="50px" viewBox="0 0 50 50" version="1.1" xmlns="http://www.w3.org/2000/svg" xmlns:xlink="http://www.w3.org/1999/xlink">
    <!-- Generator: Sketch 52.5 (67469) - http://www.bohemiancoding.com/sketch -->
    <title>change_color</title>
    <desc>Created with Sketch.</desc>
    <g id="change_color" stroke="none" stroke-width="1" fill="none" fill-rule="evenodd">
        <path d="M25,0 C11.1944444,0 0,11.1944444 0,25 C0,38.8055556 11.1944444,50 25,50 C27.3055556,50 29.1666667,48.1388889 29.1666667,45.8333333 C29.1666667,44.75 28.75,43.7777778 28.0833333,43.0277778 C27.4444444,42.3055556 27.0277778,41.3333333 27.0277778,40.2777778 C27.0277778,37.9722222 28.8888889,36.1111111 31.1944444,36.1111111 L36.1111111,36.1111111 C43.7777778,36.1111111 50,29.8888889 50,22.2222222 C50,9.94444444 38.8055556,0 25,0 Z M9.72222222,25 C7.41666667,25 5.55555556,23.1388889 5.55555556,20.8333333 C5.55555556,18.5277778 7.41666667,16.6666667 9.72222222,16.6666667 C12.0277778,16.6666667 13.8888889,18.5277778 13.8888889,20.8333333 C13.8888889,23.1388889 12.0277778,25 9.72222222,25 Z M18.0555556,13.8888889 C15.75,13.8888889 13.8888889,12.0277778 13.8888889,9.72222222 C13.8888889,7.41666667 15.75,5.55555556 18.0555556,5.55555556 C20.3611111,5.55555556 22.2222222,7.41666667 22.2222222,9.72222222 C22.2222222,12.0277778 20.3611111,13.8888889 18.0555556,13.8888889 Z M31.9444444,13.8888889 C29.6388889,13.8888889 27.7777778,12.0277778 27.7777778,9.72222222 C27.7777778,7.41666667 29.6388889,5.55555556 31.9444444,5.55555556 C34.25,5.55555556 36.1111111,7.41666667 36.1111111,9.72222222 C36.1111111,12.0277778 34.25,13.8888889 31.9444444,13.8888889 Z M40.2777778,25 C37.9722222,25 36.1111111,23.1388889 36.1111111,20.8333333 C36.1111111,18.5277778 37.9722222,16.6666667 40.2777778,16.6666667 C42.5833333,16.6666667 44.4444444,18.5277778 44.4444444,20.8333333 C44.4444444,23.1388889 42.5833333,25 40.2777778,25 Z" id="Shape" fill="#FFFFFF" fill-rule="nonzero"></path>
    </g>
</svg>