<?xml version="1.0" encoding="UTF-8"?>
<svg width="50px" height="50px" viewBox="0 0 50 50" version="1.1" xmlns="http://www.w3.org/2000/svg" xmlns:xlink="http://www.w3.org/1999/xlink">
    <!-- Generator: Sketch 52.5 (67469) - http://www.bohemiancoding.com/sketch -->
    <title>snooze</title>
    <desc>Created with Sketch.</desc>
    <g id="snooze" stroke="none" stroke-width="1" fill="none" fill-rule="evenodd">
        <path d="M8.97510373,8.25442036 C11.5491561,4.36568877 16.4661087,2.15038876 21.1120332,0.501669857 C21.815048,0.658288242 22.7464734,0.193415109 23.1659751,0.104092908 C25.3816339,-0.0193450518 27.0696612,-0.349299164 27.6473029,1.49561223 C27.5419654,2.51682128 27.7286501,2.51513485 27.4605809,3.08592003 C26.0020799,6.19142668 23.5319096,5.90093777 21.8589212,13.0253437 L21.8589212,14.2180746 L21.6721992,14.2180746 L21.6721992,18.988998 L21.8589212,18.988998 C22.3711192,26.7784063 28.3627503,32.6987083 34.9294606,34.096922 L36.0497925,34.096922 L36.0497925,34.2957105 L40.5311203,34.2957105 L40.5311203,34.096922 C42.6447022,34.1461756 44.044576,33.0488756 45.5726141,32.5066142 C46.8488878,32.4589603 47.599075,33.0444659 48,33.8981336 C47.6786192,41.6572699 36.69846,48.3908481 30.0746888,49.8012115 L28.3941909,49.8012115 L28.3941909,50 L25.033195,50 L25.033195,49.8012115 L23.1659751,49.8012115 L23.1659751,49.6024231 C12.8379267,48.7787092 5.24206905,39.6704791 3.37344398,29.7235756 L3.37344398,28.5308448 L3.18672199,28.5308448 L3.18672199,26.54296 L3,26.54296 L3,23.3623444 L3.18672199,23.3623444 L3.18672199,21.3744597 L3.37344398,21.3744597 C3.63159208,16.9504019 5.43579581,14.0013793 6.92116183,10.8386705 C7.35489982,9.91513589 8.53587859,9.1896385 8.97510373,8.25442036 L8.97510373,8.25442036 Z" id="Shape-20" fill="#FFFFFF"></path>
    </g>
</svg>