<?xml version="1.0" encoding="UTF-8"?>
<svg width="96px" height="92px" viewBox="0 0 96 92" version="1.1" xmlns="http://www.w3.org/2000/svg" xmlns:xlink="http://www.w3.org/1999/xlink">
    <!-- Generator: Sketch 53.1 (72631) - https://sketchapp.com -->
    <title>star</title>
    <desc>Created with Sketch.</desc>
    <g id="Pro" stroke="none" stroke-width="1" fill="none" fill-rule="evenodd">
        <g id="SnoozePanel2.0-Copy-8" transform="translate(-234.000000, -129.000000)">
            <g id="star" transform="translate(234.000000, 129.000000)">
                <path d="M48.0036,6.3776 L60.9948,31.6644 L89.5384,36.2724 L67.6716,55.8364 C68.394,59.5964 72.58,81.3992 73.5268,86.3296 L47.8952,73.0968 L22.2876,86.3056 L28.3132,55.8712 L6.4572,36.2748 L35.0128,31.6648 L48.0036,6.378 L48.0036,6.3776 Z" id="Shape-Copy-4" fill="#45C9F4" fill-rule="nonzero"></path>
                <path d="M54.75,53.5 L46.6815,53.5 L56.34075,43.84075 C56.9840428,43.1972629 57.1764493,42.2296676 56.8282755,41.3890272 C56.4801016,40.5483869 55.6598908,40.0001943 54.75,40 L41.25,40 C40.0073593,40 39,41.0073593 39,42.25 C39,43.4926407 40.0073593,44.5 41.25,44.5 L49.3185,44.5 L39.65925,54.15925 C39.0159572,54.8027371 38.8235507,55.7703324 39.1717245,56.6109728 C39.5198984,57.4516131 40.3401092,57.9998057 41.25,58 L54.75,58 C55.9926407,58 57,56.9926407 57,55.75 C57,54.5073593 55.9926407,53.5 54.75,53.5 Z" id="Path" fill="#FFFFFF"></path>
                <path d="M89.5388,36.2728 L78.974,34.5672 L59.672,51.8368 C60.3884,55.5672 64.5084,77.026 65.4992,82.1856 L73.5272,86.33 L67.672,55.8368 L89.5388,36.2728 Z" id="Path" fill="#36BAE5" fill-rule="nonzero"></path>
                <polygon id="Path" fill="#36BAE5" fill-rule="nonzero" points="39.896 69.096 24.08 77.256 22.288 86.304 47.768 73.164"></polygon>
                <path d="M48.0036,6.3776 L60.9948,31.6644 L89.5384,36.2724 L67.6716,55.8364 C68.394,59.5964 72.58,81.3992 73.5268,86.3296 L47.8952,73.0968 L22.2876,86.3056 L28.3132,55.8712 L6.4572,36.2748 L35.0128,31.6648 L48.0036,6.378 L48.0036,6.3776 Z M48.0036,0.0012 C47.2528967,-0.00385917483 46.5640319,0.416494028 46.2252,1.0864 L32.3788,28.04 L1.68,32.994 C0.923305552,33.1177679 0.303976925,33.6632505 0.0856389707,34.3982563 C-0.132698984,35.1332621 0.0883912917,35.9283962 0.6548,36.4452 L23.946,57.3288 L17.56,89.5948 C17.4056681,90.3493924 17.6996334,91.1254056 18.3151877,91.5883537 C18.930742,92.0513019 19.757849,92.1184285 20.44,91.7608 L47.8944,77.6 L75.3496,91.774 C76.0296901,92.1292701 76.8532853,92.0628854 77.4676931,91.6032742 C78.0821009,91.143663 78.3783593,90.372335 78.2296,89.6196 L72.0256,57.3088 L95.3428,36.4472 C95.9101444,35.9307593 96.1320662,35.1352919 95.9140073,34.399737 C95.6959483,33.6641822 95.0763439,33.1181895 94.3192,32.9944 L63.6288,28.04 L49.782,1.086 C49.443463,0.415716985 48.7545072,-0.00500165274 48.0036,8.8817842e-16 L48.0036,0.0012 Z" id="Shape" fill="#2595B9" fill-rule="nonzero"></path>
            </g>
        </g>
    </g>
</svg>